/* XPM */
static char *result[] = {
/* columns rows colors chars-per-pixel */
"64 64 176 2 ",
"   c #C7800E",
".  c #C8800E",
"X  c #C8810E",
"o  c #C9810E",
"O  c #CA810E",
"+  c #CA820E",
"@  c #CB820E",
"#  c #CB830E",
"$  c #CC830E",
"%  c #CD830E",
"&  c #CC840E",
"*  c #CE840E",
"=  c #CF840E",
"-  c #CF850E",
";  c #D0850E",
":  c #D0860E",
">  c #D1860E",
",  c #D1860F",
"<  c #D2870E",
"1  c #D2860F",
"2  c #D2870F",
"3  c #D3870F",
"4  c #D3880F",
"5  c #D4880F",
"6  c #D5880F",
"7  c #D5890F",
"8  c #D6890F",
"9  c #D68A0F",
"0  c #D78A0F",
"q  c #D88A0F",
"w  c #D98B0F",
"e  c #DA8C0F",
"r  c #DB8C0F",
"t  c #DB8D0F",
"y  c #DD8E0F",
"u  c #D98B10",
"i  c #DB8D10",
"p  c #DC8D10",
"a  c #DD8D10",
"s  c #DD8E10",
"d  c #DE8E10",
"f  c #DE8F10",
"g  c #DF8F10",
"h  c #F39B0F",
"j  c #E08F10",
"k  c #E09010",
"l  c #E19010",
"z  c #E19110",
"x  c #E29110",
"c  c #E39110",
"v  c #E39210",
"b  c #E49210",
"n  c #E49211",
"m  c #E49311",
"M  c #E69311",
"N  c #E79410",
"B  c #E69411",
"V  c #E79411",
"C  c #E79511",
"Z  c #E89510",
"A  c #E89511",
"S  c #EA9511",
"D  c #E99610",
"F  c #E99611",
"G  c #EA9610",
"H  c #EA9611",
"J  c #EB9711",
"K  c #EC9711",
"L  c #EC9811",
"P  c #ED9811",
"I  c #EE9811",
"U  c #EE9911",
"Y  c #EE9912",
"T  c #EF9912",
"R  c #EF9A12",
"E  c #F39B10",
"W  c #F39B11",
"Q  c #F09912",
"!  c #F09A12",
"~  c #F19A12",
"^  c #F19B12",
"/  c #F29B12",
"(  c #F39B12",
")  c #F39C11",
"_  c #F29C12",
"`  c #F39C12",
"'  c #F39C13",
"]  c #F49C12",
"[  c #F49D12",
"{  c #F59D12",
"}  c #F39D14",
"|  c #F39D15",
" . c #F39D16",
".. c #F39E17",
"X. c #F39E18",
"o. c #F39E19",
"O. c #F39F19",
"+. c #F39F1A",
"@. c #F39F1B",
"#. c #F39F1C",
"$. c #F3A01D",
"%. c #F3A01E",
"&. c #F3A01F",
"*. c #F3A11F",
"=. c #F3A120",
"-. c #F3A121",
";. c #F3A122",
":. c #F3A222",
">. c #F3A223",
",. c #F3A224",
"<. c #F3A327",
"1. c #F3A328",
"2. c #F3A428",
"3. c #F3A429",
"4. c #F3A42A",
"5. c #F3A52B",
"6. c #F3A62D",
"7. c #F3A730",
"8. c #F3A731",
"9. c #F3A834",
"0. c #F3A835",
"q. c #F3A937",
"w. c #F3A938",
"e. c #F3AA39",
"r. c #F3AB3D",
"t. c #F3AC3E",
"y. c #F3AC3F",
"u. c #F3AC40",
"i. c #F3AD41",
"p. c #F3AD42",
"a. c #F3AD43",
"s. c #F3AE43",
"d. c #F3AE44",
"f. c #F3AE45",
"g. c #F3AF47",
"h. c #F3AF48",
"j. c #F3AF4A",
"k. c #F3B04A",
"l. c #F3B04B",
"z. c #F3B14C",
"x. c #F3B14D",
"c. c #F3B14E",
"v. c #F3B24F",
"b. c #F3B251",
"n. c #F3B351",
"m. c #F3B252",
"M. c #F3B352",
"N. c #F3B353",
"B. c #F3B354",
"V. c #F3B455",
"C. c #F3B456",
"Z. c #F3B457",
"A. c #F3B557",
"S. c #F3B559",
"D. c #F3B65A",
"F. c #F3B65B",
"G. c #F3B65C",
"H. c #F3B75E",
"J. c #F3B75F",
"K. c #F3B860",
"L. c #F3B861",
"P. c #F3B862",
"I. c #F3B962",
"U. c #F3B963",
"Y. c #F3B964",
"T. c #F3B965",
"R. c #F2BA65",
"E. c #F3BA65",
"W. c #F2B966",
"Q. c #F3B966",
"!. c #F2BA66",
"~. c #F3BA66",
"^. c #F3BA67",
"/. c #F3BB68",
"(. c #F3BB69",
"). c None",
/* pixels */
").).).).).).).).).).).).).).).).).).).).).).).).).).R.E.E.E.E.E.E.E.E.E.E.R.).).).).).).).).).).).).).).).).).).).).).).).).).).",
").).).).).).).).).).).).).).).).).).).).).).E.~.~.~.~.~.~.~.~.~.~.~.~.~.~.~.~.~.~.E.).).).).).).).).).).).).).).).).).).).).).).",
").).).).).).).).).).).).).).).).).).).R.E.~.~.~.~.~.~.~.~.~.~.~.~.~.~.~.~.~.~.~.~.~.~.~.~.).).).).).).).).).).).).).).).).).).).",
").).).).).).).).).).).).).).).).).~.~.~.~.~.~.~.~.^././././././././././././.^.~.~.~.~.~.~.~.~.).).).).).).).).).).).).).).).).).",
").).).).).).).).).).).).).).).).~.~.~.~.~.^././.Y.G.V.c.l.l.l.l.l.l.l.l.c.V.G.Y././.^.~.~.~.~.~.~.).).).).).).).).).).).).).).).",
").).).).).).).).).).).).).).R.R.~.~.~.^.~.L.A.v.f.w.6.>.%.&.&.&.&.&.&.%.>.6.w.f.v.A.L.~.^.~.~.~.~.~.).).).).).).).).).).).).).).",
").).).).).).).).).).).).).E.~.~.~.~.E.J.V.d.5.o.` ) ` ` ` ` ` ` ` ` ` ` ` ` ) ` o.5.d.V.J.E.~.~.~.~.W.W.).).).).).).).).).).).).",
").).).).).).).).).).).E.~.~.~.~.E.P.C.e.$.' ' ` ` ` ` ` ` ` ` ` ` ` ` ` ` ` ` ` ` ' ' $.e.C.P.E.~.~.~.!.R.).).).).).).).).).).).",
").).).).).).).).).).R.~.~.~.~.T.H.e.&.| ' ` ` ` ` ` ` ` ` ` ` ` ` ` ` ` ` ` ` ` ` ` ` ' | &.e.H.T.~.~.~.~.~.).).).).).).).).).).",
").).).).).).).).).W.~.~.~.^.I.j.1.o.' ) ` ` ` ` ` ` ` ` ` ` ` ` ` ` ` ` ` ` ` ` ` ` ` ` ) ' o.1.j.I.^.~.~.~.~.).).).).).).).).).",
").).).).).).).).E.~.~.~./.K.p.-.' ) ` ` ` ` ` ` ` ` ` ` ` ` ` ` ` ` ` ` ` ` ` ` ` ` ` ` ` ` ) ' -.p.K./.~.~.~.R.).).).).).).).).",
").).).).).).).).~.~.~./.F.r.*.) ` ` ` ` ` ` ` ` ` ` ` ` ` ` ` ` ` ` ` ` ` ` ` ` ` ` ` ` ` ` ` ` ) *.r.F./.~.~.~.W.).).).).).).).",
").).).).).).).~.~.~.^.P.p.@.W ` ` ` ` ` ` ` ` ` ` ` ` ] [ [ [ [ [ [ [ [ ] ` ` ` ` ` ` ` ` ` ` ` ` W @.p.P.^.~.~.~.).).).).).).).",
").).).).).).~.~.~.~.L.h.,.E ` ` ` ` ` ` ` ` ` ` ` ` ! I J F H H H H F J I ! ` ` ` ` ` ` ` ` ` ` ` ` E ,.h.L.~.~.~.~.).).).).).).",
").).).).).~.~.~.~.Y.j.>.E ` ` ` ` ` ` ` ` ` ` / U H c r 5 , , , , , , 5 r c H U / ` ` ` ` ` ` ` ` ` ` E >.j.Y.~.~.~.E.).).).).).",
").).).).).W.~.~.E.C.3.' ` ` ` ` ` ` ` ` ` _ R A w * + O o o o o o o o o O + * w A R _ ` ` ` ` ` ` ` ` ` ' 3.C.E.~.~.R.E.).).).).",
").).).).~.~.~.E.H.7...` ` ` ` ` ` ` ` ` / D 0 $ + o o o o o o o o o o o o o o + $ 0 D / ` ` ` ` ` ` ` ` ` ..7.H.E.~.~.~.).).).).",
").).).~.~.~.~.U.i.#.` ` ` ` ` ` ` ` ` ! v < @ o o o o o o o o o o o o o o o o o o @ < v ! ` ` ` ` ` ` ` ` ` #.i.U.~.~.~.~.).).).",
").).).~.~.~.E.D.:.' ` ` ` ` ` ` ` ` / l - + o o o o o o o o o o o o o o o o o o o o + - j ~ ` ` ` ` ` ` ` ` ' :.D.E.~.~.~.).).).",
").).R.~.~.^.K.u. .) ` ` ` ` ` ` ` ` b > . o o o o o o o o o . . . . X o o o o o o o o . - j ! ` ` ` ` ` ` ` )  .u.K.^.~.~.~.).).",
").).E.~.~.~.Z.:.' ` ` ` ` ` ` ` ` V 3 o o o o o o o o o o % 5 8 8 7 - + o o o o o o o o . - x / ` ` ` ` ` ` ` ' :.Z.~.~.~.~.).).",
").).~.~.^.L.d.' ` ` ` ` ` ` ` ` P 6 + o o o o o o o o o - y S L L J l 2 o o o o o o o o o o > G _ ` ` ` ` ` ` ` ' d.L.^.~.~.).).",
").E.~.~./.A.5.' ` ` ` ` ` ` ` ! p $ o o o o o o o o o @ a ^ ` ` ` ` [ x * o o o o o o o o o @ w T ` ` ` ` ` ` ` ' 5.A./.~.~.E.).",
").~.~.~./.v.o.` ` ` ` ` ` ` / A % o o o o o o o o o . q J ` ` ` ` ` ` L w . o o o o o o o o o $ m ^ ` ` ` ` ` ` ` o.v./.~.~.~.).",
").~.~.^.P.p.` ` ` ` ` ` ` ] U w + o o o o o o o o o . k ] ` ` ` ` ` ` ] k . o o o o o o o o o + 0 U ] ` ` ` ` ` ` ` p.P.^.~.~.).",
").~.~.^.S.0.) ` ` ` ` ` ` ` H $ o o o o o o o o o o . l { ` ` ` ` ` ` { l . o o o o o o o o o o $ A _ ` ` ` ` ` ` ) 0.S.^.~.~.).",
"E.~.~./.b.<.` ` ` ` ` ` ` ! l O o o o o o o o o o o . l { ` ` ` ` ` ` { l . o o o o o o o o o o O g R ` ` ` ` ` ` ` <.b./.~.~.E.",
"E.~.~./.z.=.` ` ` ` ` ` ] K q O o o o o o o o o o o . l { ` ` ` ` ` ` { l . o o o o o o o o o o o 0 K [ ` ` ` ` ` ` =.z./.~.~.E.",
"~.~.~.(.g.X.` ` ` ` ` ` [ H > o o o o o o o o o o o . l { ` ` ` ` ` ` { l . o o o o o o o o o o o ; F [ ` ` ` ` ` ` X.g.(.~.~.~.",
"~.~.~.(.i.h ` ` ` ` ` ` [ A $ o o o o o o o o o o o . l { ` ` ` ` ` ` { l . o o o o o o o o o o o @ V [ ` ` ` ` ` ` h i.(.~.~.~.",
"~.~.~.(.p.h ` ` ` ` ` ` [ B X o o o o o o o o o o o . l { ` ` ` ` ` ` { l . o o o o o o o o o o o X B [ ` ` ` ` ` ` h p.(.~.~.~.",
"~.~.~.(.p.h ` ` ` ` ` ` [ B o o o o o o o o o o o o . l { ` ` ` ` ` ` { l . o o o o o o o o o o o o B [ ` ` ` ` ` ` h p.(.~.~.~.",
"~.~.~.(.p.h ` ` ` ` ` ` [ B o o o o o o o o o o o o . l { ` ` ` ` ` ` { l . o o o o o o o o o o o o B [ ` ` ` ` ` ` h p.(.~.~.~.",
"~.~.~.(.p.h ` ` ` ` ` ` [ B X o o o o o o o o o o o . l { ` ` ` ` ` ` { l . o o o o o o o o o o o X B [ ` ` ` ` ` ` h p.(.~.~.~.",
"~.~.~.(.a.( ` ` ` ` ` ` [ A $ o o o o o o o o o o o . l { ` ` ` ` ` ` { l . o o o o o o o o o o o & A [ ` ` ` ` ` ` ( a.(.~.~.~.",
"~.~.~.(.h.o.` ` ` ` ` ` [ H > o o o o o o o o o o o . l { ` ` ` ` ` ` { l . o o o o o o o o o o o ; F [ ` ` ` ` ` ` o.h.(.~.~.~.",
"E.~.~./.c.;.` ` ` ` ` ` [ K 0 o o o o o o o o o o o . l { ` ` ` ` ` ` { l . o o o o o o o o o o o 7 J [ ` ` ` ` ` ` ;.c./.~.~.E.",
"E.~.~./.n.2.` ` ` ` ` ` ` R g O o o o o o o o o o o . l { ` ` ` ` ` ` { l . o o o o o o o o o o O f T ` ` ` ` ` ` ` 2.n./.~.~.E.",
").~.~.^.A.8.) ` ` ` ` ` ` _ A # o o o o o o o o o o . l { ` ` ` ` ` ` { l . o o o o o o o o o o @ M / ` ` ` ` ` ` ) 8.A.^.~.~.).",
").~.~.^.P.p.` ` ` ` ` ` ` ] P 5 + o o o o o o o o o . k [ ` ` ` ` ` ` [ l . o o o o o o o o o O ; L ] ` ` ` ` ` ` ` p.P.^.~.~.).",
").~.~.~./.x. .` ` ` ` ` ` ` ^ n $ o o o o o o o o o . p Q ` ` ` ` ` ` ^ s . o o o o o o o o o @ j ! ` ` ` ` ` ` `  .x./.~.~.~.).",
").E.~.~./.C.4.' ` ` ` ` ` ` ` Y 8 @ o o o o o o o o X 1 M [ ` ` ` ` [ V 4 X o o o o o o o o o ; P ` ` ` ` ` ` ` ' 4.C./.~.~.W.).",
").).~.~.^.H.t.' ` ` ` ` ` ` ` / N = o o o o o o o o o + 5 b Q [ [ ` Z 8 @ o o o o o o o o X % l / ` ` ` ` ` ` ` ' t.H.^.~.~.Q.).",
").).~.~.~.E.m.$.' ` ` ` ` ` ` ` ~ d % . o o o o o o o o + , q i i e 3 @ X o o o o o o o X @ u T ` ` ` ` ` ` ` ' $.m.E.~.~.~.).).",
").).~.~.~.^.J.q.| ) ` ` ` ` ` ` ` U t $ . o o o o o o o o X .     . . o o o o o o o o X + 9 H ` ` ` ` ` ` ` ) | q.J.^.~.~.~.).).",
").).).~.~.~.Y.N.%.' ` ` ` ` ` ` ` ` P p * o o o o o o o o o o o o o o o o o o o o o o % 0 V ] ` ` ` ` ` ` ` ' %.N.Y.~.~.~.).).).",
").).).~.~.~.~.I.e.o.) ` ` ` ` ` ` ` ` ~ l - + o o o o o o o o o o o o o o o o o o o * a P ] ` ` ` ` ` ` ` ) o.e.I.~.~.~.~.).).).",
").).).).~.~.~.E.H.1.' ` ` ` ` ` ` ` ` ` / Z 3 $ O o o o o o o o o o o o o o o O @ ; c ! ` ` ` ` ` ` ` ` ` ' 1.H.E.~.~.!.).).).).",
").).).).~.~.~.~.T.j.-.) ` ` ` ` ` ` ` ` ` / U z : @ O o o o o o o o o o o o @ ; s H ^ ` ` ` ` ` ` ` ` ` ) -.j.T.~.~.~.E.).).).).",
").).).).).~.~.~.~.I.p.*.W ` ` ` ` ` ` ` ` ` ` ! L n r < # X o o o o X # < e x L R / ` ` ` ` ` ` ` ` ` W *.p.I.~.~.~.~.).).).).).",
").).).).).).E.~.~.^.K.r.@.E ` ` ` ` ` ` ` ` ` ` ] ^ P H C B B B B B B C H P ! ] ` ` ` ` ` ` ` ` ` ` E @.r.K.^.~.~.R.).).).).).).",
").).).).).).E.~.~.~./.G.y.=.E ` ` ` ` ` ` ` ` ` ` ` ] [ [ [ [ [ [ [ [ [ [ ] ` ` ` ` ` ` ` ` ` ` ` E =.y.G./.~.~.~.R.).).).).).).",
").).).).).).).R.~.~.~./.J.s.>.) ` ` ` ` ` ` ` ` ` ` ` ` ` ` ` ` ` ` ` ` ` ` ` ` ` ` ` ` ` ` ` ` ) >.s.J./.~.~.~.~.).).).).).).).",
").).).).).).).).~.~.~.~.^.P.h.-.| ` ` ` ` ` ` ` ` ` ` ` ` ` ` ` ` ` ` ` ` ` ` ` ` ` ` ` ` ` ` | -.h.P.^.~.~.~.~.).).).).).).).).",
").).).).).).).).).~.~.~.~.^.P.k.5.O.` ` ` ` ` ` ` ` ` ` ` ` ` ` ` ` ` ` ` ` ` ` ` ` ` ` ` ` O.5.k.P.^.~.~.~.~.).).).).).).).).).",
").).).).).).).).).).R.~.~.~.~.E.H.e.%.} ' ` ` ` ` ` ` ` ` ` ` ` ` ` ` ` ` ` ` ` ` ` ` ' } %.e.H.E.~.~.~.~.~.).).).).).).).).).).",
").).).).).).).).).).).R.R.~.~.~.E.I.N.9.+.' ' ` ` ` ` ` ` ` ` ` ` ` ` ` ` ` ` ` ` ' ' +.9.N.I.E.~.~.~.~.~.).).).).).).).).).).).",
").).).).).).).).).).).).).E.~.~.~.~.Y.H.v.w.:.` ) ` ` ` ` ` ` ` ` ` ` ` ` ` ` ) ` :.w.v.H.Y.~.~.~.~.W.Q.).).).).).).).).).).).).",
").).).).).).).).).).).).).).~.R.~.~.~.^.Y.G.B.l.q.3.%.} h h h h h h h h } %.3.q.l.B.G.Y.^.~.~.~.~.~.).).).).).).).).).).).).).).",
").).).).).).).).).).).).).).).R.E.~.~.~.~.^./.^.F.M.l.d.i.p.p.p.p.p.p.i.d.l.M.F.^./.^.~.~.~.~.R.E.).).).).).).).).).).).).).).).",
").).).).).).).).).).).).).).).).).~.~.~.~.~.~.~.^././.(.(.(.(.(.(.(.(.(.(././.^.~.~.~.~.~.~.~.R.).).).).).).).).).).).).).).).).",
").).).).).).).).).).).).).).).).).).).~.~.~.~.~.~.~.~.~.~.~.~.~.~.~.~.~.~.~.~.~.~.~.~.~.!.W.).).).).).).).).).).).).).).).).).).",
").).).).).).).).).).).).).).).).).).).).).R.R.~.~.~.~.~.~.~.~.~.~.~.~.~.~.~.~.~.~.~.Q.).).).).).).).).).).).).).).).).).).).).).",
").).).).).).).).).).).).).).).).).).).).).).).).).E.W.~.~.~.~.~.~.~.~.~.~.R.E.).).).).).).).).).).).).).).).).).).).).).).).).)."
};
