/* XPM */
static char *_6b9291fa2764ef7d2a46527259c7a76HiCS6pseaGQvpWKV[] = {
/* columns rows colors chars-per-pixel */
"56 56 38 1 ",
"  c None",
". c #C9810E",
"X c #CB820E",
"o c #CE840E",
"O c #D0860E",
"+ c #D3870F",
"@ c #D6890F",
"# c #D88B0F",
"$ c #DB8C0F",
"% c #DE8E10",
"& c #E09010",
"* c #E39110",
"= c #E59310",
"- c #E89511",
"; c #EB9611",
": c #ED9811",
"> c #F09A11",
", c #F39C12",
"< c #F39D17",
"1 c #F39F1C",
"2 c #F3A121",
"3 c #F3A327",
"4 c #F3A52C",
"5 c #F3A731",
"6 c #F3A936",
"7 c #F3AB3C",
"8 c #F3AC41",
"9 c #F3AE46",
"0 c #F3B04B",
"q c #F3B251",
"w c #F3B456",
"e c #F3B65B",
"r c #F3B860",
"t c #F2BA65",
"y c #F3BA65",
"u c #F2B966",
"i c #F3B966",
"p c #F3BA66",
/* pixels */
"                       pppppppppp                       ",
"                   pppppppppppppppppp                   ",
"                pppppppppppppppppppppppp                ",
"              pppppppppppppppppppppppppppp              ",
"             ppppppppe963333333369epppppppp             ",
"           pppppppe61,,,,,,,,,,,,,,16eppppppp           ",
"          ppppppw3,,,,,,,,,,,,,,,,,,,,3wpppppp          ",
"         pppppr4,,,,,,,,,,,,,,,,,,,,,,,,4rppppp         ",
"        ppppp9<,,,,,,,,,,,,,,,,,,,,,,,,,,<9ppppp        ",
"       ppppp7,,,,,,,,,,,,,,,,,,,,,,,,,,,,,,7ppppp       ",
"      ppppp5,,,,,,,,,,,,,,,,,,,,,,,,,,,,,,,,5ppppp      ",
"     ppppp9,,,,,,,,,,,,,,,,,,,,,,,,,,,,,,,,,,9ppppp     ",
"     pppp9,,,,,,,,,,,,>=$++++++$=>,,,,,,,,,,,,9pppp     ",
"    ppppw<,,,,,,,,,,:#............#:,,,,,,,,,,<wpppp    ",
"   ppppr2,,,,,,,,,>#................#>,,,,,,,,,2rpppp   ",
"   pppp6,,,,,,,,,;+..................+;,,,,,,,,,6pppp   ",
"  ppppe,,,,,,,,,:......................;,,,,,,,,,epppp  ",
"  pppp5,,,,,,,,>+.......................;,,,,,,,,5pppp  ",
"  pppe,,,,,,,,,+.........o*;;=+.........o>,,,,,,,,eppp  ",
" pppp6,,,,,,,,%..........:,,,,,+.........$,,,,,,,,6pppp ",
" pppp1,,,,,,,:..........*,,,,,,=..........;,,,,,,,1pppp ",
" pppw,,,,,,,,#..........,,,,,,,,..........@,,,,,,,,wppp ",
" ppp8,,,,,,,>...........,,,,,,,,...........:,,,,,,,8ppp ",
"pppp4,,,,,,,*...........,,,,,,,,...........*,,,,,,,4pppp",
"pppp3,,,,,,,@...........,,,,,,,,...........@,,,,,,,3pppp",
"pppp,,,,,,,,+...........,,,,,,,,...........o,,,,,,,,pppp",
"pppp,,,,,,,,............,,,,,,,,............,,,,,,,,pppp",
"pppp,,,,,,,,............,,,,,,,,............,,,,,,,,pppp",
"pppp,,,,,,,,............,,,,,,,,............,,,,,,,,pppp",
"pppp,,,,,,,,............,,,,,,,,............,,,,,,,,pppp",
"pppp<,,,,,,,+...........,,,,,,,,...........+,,,,,,,<pppp",
"pppp3,,,,,,,@...........,,,,,,,,...........+,,,,,,,3pppp",
"pppp5,,,,,,,*...........,,,,,,,,...........*,,,,,,,5pppp",
" ppp7,,,,,,,:...........,,,,,,,,...........;,,,,,,,7ppp ",
" pppw,,,,,,,,+..........,,,,,,,,..........o,,,,,,,,wppp ",
" pppp<,,,,,,,;..........;,,,,,,:..........*,,,,,,,<pppp ",
" pppp6,,,,,,,,@.........@,,,,,,#.........o,,,,,,,,6pppp ",
"  pppq,,,,,,,,:..........@;,,>$..........;,,,,,,,,qpppp ",
"  pppp3,,,,,,,,=........................%,,,,,,,,3pppp  ",
"  ppppq,,,,,,,,,*......................#,,,,,,,,,qpppp  ",
"   pppp4,,,,,,,,,;....................*,,,,,,,,,4pppp   ",
"   ppppr<,,,,,,,,,>+................o;,,,,,,,,,<rpppp   ",
"    pppp9,,,,,,,,,,,=o............o*>,,,,,,,,,,9pppp    ",
"    ppppp7,,,,,,,,,,,,;$+......+$=,,,,,,,,,,,,7ppppp    ",
"     ppppp5,,,,,,,,,,,,,,,,,,,,,,,,,,,,,,,,,,5ppppp     ",
"      ppppp7,,,,,,,,,,,,,,,,,,,,,,,,,,,,,,,,7ppppp      ",
"       ppppp9,,,,,,,,,,,,,,,,,,,,,,,,,,,,,,9ppppp       ",
"        ppppp91,,,,,,,,,,,,,,,,,,,,,,,,,,19pppppp       ",
"         pppppr4,,,,,,,,,,,,,,,,,,,,,,,,4rppppp         ",
"          ppppppq2,,,,,,,,,,,,,,,,,,,,2qpppppp          ",
"           ppppppp04,,,,,,,,,,,,,,,,40ppppppp           ",
"            ppppppppp952,,,,,,,,259ppppppppp            ",
"              pppppppppppppppppppppppppppp              ",
"                pppppppppppppppppppppppp                ",
"                  pppppppppppppppppppp                  ",
"                      pppppppppppp                      "
};
