/* XPM */
static char *result[] = {
/* columns rows colors chars-per-pixel */
"64 64 163 2 ",
"   c #11172B",
".  c #151B2E",
"X  c #181F2F",
"o  c #171F30",
"O  c #191F31",
"+  c #1D2333",
"@  c #212535",
"#  c #212936",
"$  c #282B36",
"%  c #242639",
"&  c #242B3A",
"*  c #292C3D",
"=  c #27303C",
"-  c #29323D",
";  c #32353D",
":  c #31393F",
">  c #3A383C",
",  c #262E40",
"<  c #2C2E41",
"1  c #2C3442",
"2  c #2F3942",
"3  c #2F3849",
"4  c #2B3448",
"5  c #313345",
"6  c #323C44",
"7  c #393B42",
"8  c #343549",
"9  c #353A4C",
"0  c #3A3B4D",
"q  c #39374B",
"w  c #353D52",
"e  c #3E3D52",
"r  c #423E40",
"t  c #413E52",
"y  c #364146",
"u  c #394346",
"i  c #374249",
"p  c #3B444B",
"a  c #3D494D",
"s  c #364155",
"d  c #3F4354",
"f  c #3E4A51",
"g  c #3C455A",
"h  c #3D495C",
"j  c #3E4C62",
"k  c #444243",
"l  c #414C4F",
"z  c #40464D",
"x  c #554D47",
"c  c #564E48",
"v  c #4D534F",
"b  c #57504A",
"n  c #424255",
"m  c #424D52",
"M  c #45455A",
"N  c #454A5F",
"B  c #455254",
"V  c #4A5456",
"C  c #4B5759",
"Z  c #4C5A5B",
"A  c #575950",
"S  c #585951",
"D  c #515C5E",
"F  c #6A5E50",
"G  c #5E675E",
"H  c #6F6152",
"J  c #61635E",
"K  c #646A5C",
"L  c #696F5E",
"P  c #454C62",
"I  c #494D63",
"U  c #455065",
"Y  c #4A5166",
"T  c #45546A",
"R  c #4B546A",
"E  c #4D596E",
"W  c #555E61",
"Q  c #51576A",
"!  c #525A6D",
"~  c #4E5C73",
"^  c #515D75",
"/  c #556162",
"(  c #5A6565",
")  c #5D6768",
"_  c #5E6969",
"`  c #4F6077",
"'  c #4F6078",
"]  c #526077",
"[  c #53647C",
"{  c #596479",
"}  c #5D6A7D",
"|  c #586275",
" . c #626B64",
".. c #646D6D",
"X. c #66706F",
"o. c #6D7569",
"O. c #707766",
"+. c #737A6D",
"@. c #767C66",
"#. c #677170",
"$. c #6C7473",
"%. c #727976",
"&. c #817764",
"*. c #7D846E",
"=. c #7B8472",
"-. c #9C8563",
";. c #928268",
":. c #99886C",
">. c #808771",
",. c #848B74",
"<. c #888F77",
"1. c #888A78",
"2. c #938C73",
"3. c #8D9477",
"4. c #8B9179",
"5. c #939A77",
"6. c #969178",
"7. c #98947D",
"8. c #959B79",
"9. c #AD936B",
"0. c #B2966C",
"q. c #AB9977",
"w. c #BB9E71",
"e. c #BDA073",
"r. c #CAA977",
"t. c #CCAD7A",
"y. c #CFB17E",
"u. c #D0B27E",
"i. c #556880",
"p. c #5B6D83",
"a. c #5E7288",
"s. c #647589",
"d. c #65798D",
"f. c #687B8E",
"g. c #6E8294",
"h. c #A29F82",
"j. c #A3A084",
"k. c #B4B38A",
"l. c #B9B18D",
"z. c #BCB491",
"x. c #C3AD81",
"c. c #C4B58B",
"v. c #D3B783",
"b. c #D5BA86",
"n. c #D8BF8B",
"m. c #C6B991",
"M. c #DCC38E",
"N. c #DBC693",
"B. c #DFC995",
"V. c #D6CC9F",
"C. c #D8CC9D",
"Z. c #E1CB96",
"A. c #E2CE99",
"S. c #E6D39D",
"D. c #E8D59F",
"F. c #DED1A1",
"G. c #E4D4A0",
"H. c #E8D6A1",
"J. c #ECDCA6",
"K. c #EEDFA9",
"L. c #EFE1AB",
"P. c #F1E2AC",
"I. c None",
/* pixels */
"I.I.I.I.I.I.I.I.I.I.I.I.I.I.I.I.I.I.I.I.I.I.I.I.I.I.I.I.I.I.I.I.I.I.I.I.I.I.I.I.I.I.I.I.I.I.I.I.I.I.I.I.I.I.I.I.I.I.I.I.I.I.I.I.",
"I.I.I.I.I.I.I.I.I.I.I.I.I.I.I.I.I.I.I.I.I.I.I.I.I.I.I.I.I.I.I.I.I.I.I.I.I.I.I.I.I.I.I.I.I.I.I.I.I.I.I.I.I.I.I.I.I.I.I.I.I.I.I.I.",
"I.I.I.I.I.I.I.I.I.I.I.I.I.I.I.I.I.I.I.I.I.I.I.I.I.I.I.I.I.I.I.I.I.I.I.I.I.I.I.I.I.I.I.I.I.I.I.I.I.I.I.I.I.I.I.I.I.I.I.I.I.I.I.I.",
"I.I.I.I.I.I.I.I.I.I.I.I.I.I.I.I.I.I.I.I.I.I.I.I.I.I.I.I.I.I.I.I.I.I.I.I.I.I.I.I.I.I.I.I.I.I.I.I.I.I.I.I.I.I.I.I.I.I.I.I.I.I.I.I.",
"I.I.I.I.I.I.I.I.I.I.I.I.I.I.I.I.I.I.I.I.I.I.I.I.I.I.I.I.I.I.I.I.I.I.I.I.I.I.I.I.I.I.I.I.I.I.I.I.I.I.I.I.I.I.I.I.I.I.I.I.I.I.I.I.",
"I.I.I.I.I.I.I.I.I.I.I.I.I.I.I.I.I.I.I.I.I.I.I.I.I.I.I.I.I.y u l I.I.u I.I.I.I.I.I.I.I.I.I.I.I.I.I.I.I.I.I.I.I.I.I.I.I.I.I.I.I.I.",
"I.I.I.I.I.I.I.I.I.I.I.I.I.I.I.I.I.I.I.I.I.I.I.I.I.I.I.I.I.a ( ..V D C I.I.I.I.I.I.I.I.I.I.I.I.I.I.I.I.I.I.I.I.I.I.I.I.I.I.I.I.I.",
"I.I.I.I.I.I.I.I.I.I.I.I.I.I.I.I.I.I.I.I.I.I.I.I.I.I.I.I.+ m %...D X.B + I.I.I.I.I.I.I.I.I.I.I.I.I.I.I.I.I.I.I.I.I.I.I.I.I.I.I.I.",
"I.I.I.I.I.I.I.I.I.I.I.I.I.I.I.I.I.I.I.I.I.I.I.I.I.I.I.I.  m %.) ( %.z   I.I.I.I.I.I.I.I.I.I.I.I.I.I.I.I.I.I.I.I.I.I.I.I.I.I.I.I.",
"I.I.I.I.I.I.I.I.I.I.I.I.I.I.I.I.I.I.I.I.I.I.I.I.I.I.o # X f $./ X...6 X # . I.I.I.I.I.I.I.I.I.I.I.I.I.I.I.I.I.I.I.I.I.I.I.I.I.I.",
"I.I.I.I.I.I.I.I.I.I.I.I.I.I.I.I.I.I.I.I.I.I.I.I.I.6 p i O p ) X.X.W m @ i i 2 I.I.I.I.I.I.I.I.I.I.I.I.I.I.I.I.I.I.I.I.I.I.I.I.I.",
"I.I.I.I.I.I.I.I.I.I.I.I.I.I.I.I.I.I.I.I.I.I.I.u D ..p + # D X.X.( X...@ + a ( f p I.I.I.I.I.I.I.I.I.I.I.I.I.I.I.I.I.I.I.I.I.I.I.",
"I.I.I.I.I.I.I.I.I.I.I.I.I.I.I.I.I.I.I.I.I.u l / X.m % X * ....Z ) $./ + . & m ( ( B 6 I.I.I.I.I.I.I.I.I.I.I.I.I.I.I.I.I.I.I.I.I.",
"I.I.I.I.I.I.I.I.I.I.I.I.I.I.I.I.I.I.I.p V D _ _ m ; - X + .._ ) ..( B + o = y f Z / D B 6 I.I.I.I.I.I.I.I.I.I.I.I.I.I.I.I.I.I.I.",
"I.I.I.I.I.I.I.I.I.I.I.I.I.I.I.I.I.a B / _ _ ( C B 2 * 1 % D _ / ) Z W * 1 * 2 B C / X.#.( B l I.I.I.I.I.I.I.I.I.I.I.I.I.I.I.I.I.",
"I.I.I.I.I.I.I.I.I.I.I.I.I.I.p D  .X...( / C i 3 1 9 ~ n % 4 / _ C Z _ < n ~ 3 1 m B Z ( (  ./ / l p I.I.I.I.I.I.I.I.I.I.I.I.I.I.",
"I.I.I.I.I.I.I.I.I.I.I.I.i V ......( B B B 9 j E < j ^ 9 % ! W #._ Z C @ q i.R < T T f a B V Z ../ / D l I.I.I.I.I.I.I.I.I.I.I.I.",
"I.I.I.I.I.I.I.I.I.u V V D ..D B l B B p = T i.' e E ^ < # ..#...%.( B + < ^ E t ^ i.T & i f B V V D X.o.G l 6 I.I.I.I.I.I.I.I.I.",
"I.I.I.I.I.I.I.I.6 V / / / l l l m E T i & ' i.R t U 9 + 1 ( $...$.$./ 1 < I E t R i.[ 8 4 U R B m l m C / ( C 6 I.I.I.I.I.I.I.I.",
"I.I.I.I.I.I.I.I.@ p 6 i B B a & s [ [ N e ' i.R M T I * 6 G $.( ..$.( 4 < Y E M } a.[ d g [ i.g 1 6 m m i p m @ I.I.I.I.I.I.I.I.",
"I.I.I.I.I.I.I.I.+ & a B m t 5 , ~ ^ R t Y i.[ Y [ [ R * 2 W $.( ) %._ 2 * R [ ^ } g.a.I t I [ ~ e 5 q 6 a p & X I.I.I.I.I.I.I.I.",
"I.I.I.I.I.I.I.. 1 B 6 1 q t e t ^ [ R t Y [ R P [ i.I * 2 Z #./ X.$.$.i % P [ [ N ] a.Y n E [ ~ n t t q # = B 4 . I.I.I.I.I.I.I.",
"I.I.I.I.I.I.I.I.% - O 0 n t t R i.i.R t R [ [ R Y R g + 2 ( ( ( #.$.%.d % w T R R [ [ R n Y [ i.R n I [ g O - # I.I.I.I.I.I.I.I.",
"I.I.I.I.I.I.I.I.I.. , ~ ^ n I [ [ p.| I [ i.i.I Y [ Y + f #._ ....%.X.- < Y [ Y I p.i.[ I Y i.[ [ I I ] Y % . I.I.I.I.I.I.I.I.I.",
"I.I.I.I.I.I.I.I.I.. 5 ] E t Y i.[ f.} Y i.[ s.I ] i.P . a $./ ( $.$.( 2 o j i.^ N f.} [ Y R [ i.i.R t M M < o I.I.I.I.I.I.I.I.I.",
"I.I.I.I.I.I.I.I.I.O 8 9 0 t R a.d.f.^ Y p.d.s.R [ T &   6 / / $.$.( ( p . & T i.R s.s.p.Y P ^ [ i.Y n t t 8 O I.I.I.I.I.I.I.I.I.",
"I.I.I.I.I.I.I.I.I.O * g P t ! p.Q R M ! | Q M P s , 1 + 6 C _ %.#.D X.m + 1 * s P M Q { ^ M I R ^ Y Y [ Y 8 O I.I.I.I.I.I.I.I.I.",
"I.I.I.I.I.I.I.I.I.% P i.Y t I ~ ^ ^ M I ^ ^ g 1 m _ B + B / ) $.$.( X./ + B / f * g [ ~ I n [ [ [ I I i.i.I * . I.I.I.I.I.I.I.I.",
"I.I.I.I.I.I.I.I.. 1 ^ i.I M ^ i.i.^ I ^ ^ h m ) ..m + + / X.X.%.$.*.G / + # m X./ p g ] ^ I ~ i.i.[ P [ i.Y 5 o I.I.I.I.I.I.I.I.",
"I.I.I.I.I.I.I.I.O e ^ R t Y i.^ [ R Y T w m Z B 6 % = + v  .*.3.4.3.G v + = + 1 C _ m s T Y R i.i.[ Y I i.Y e @ I.I.I.I.I.I.I.I.",
"I.I.I.I.I.I.I.I.% 0 0 q t ~ i.i.^ w 4 m ( / l p l y : $ v L *.4.<.5.8.L $ 6 6 i 6 B Z W d 1 w ^ i.[ ~ n M n 0 * I.I.I.I.I.I.I.I.",
"I.I.I.I.I.I.I.I.@ < q e n i.i.T 9 p W ( Z B V C m y : + + K *.,.,.,.*.: + : y m C C p m ) B i 4 T i.[ M M n < @ I.I.I.I.I.I.I.I.",
"I.I.I.I.I.I.I.O 5 P ^ e 9 j s 1 D _ Z a B Z V l u + X + # @.8.4.,.+.u X + X # p l C C a f C / ( 1 s j M Y [ P q O I.I.I.I.I.I.I.",
"I.I.I.I.I.I.I.O 0 Y ] 9 & y f Z X.Z C C Z C p - o @ F -.H k S A A A k H -.F @ o - a Z Z C B Z _ D p , 1 N ~ Y 0 + I.I.I.I.I.I.I.",
"I.I.I.I.I.I.I.& t t 9 9 Z ( ( X.( Z Z C a 2 X @ x -.t.M.t.0.9.9.9.0.0.t.M.t.-.x @ X 2 l C Z Z Z _ ....W 8 8 e e % I.I.I.I.I.I.I.",
"I.I.I.I.I.I.. % < - f / ( _ / f Z Z C 6 X + r -.r.v.S.L.A.n.v.t.y.y.b.A.L.S.v.r.-.r + o 2 C Z Z B C ( ( W D 6 < % . I.I.I.I.I.I.",
"I.I.I.I.I.I.O & m  .....G C C C Z f & o r -.w.r.v.B.S.S.G.K.J.J.J.J.L.L.K.J.Z.y.r.e.-.r X & m Z C C C Z X.$._ f % . I.I.I.I.I.I.",
"I.I.I.I.I.O 6 Z ( D B m f C Z C a + + H w.v.n.Z.B.N.c.z.k.k.k.k.k.k.k.l.l.m.N.A.B.M.u.e.H @ + a C Z Z f l V G ) W 6 + I.I.I.I.I.",
"I.I.I.I.+ Z ..( p ; z C Z Z a $ . > -.t.N.K.P.F.7.,.4.4.3.5.5.5.5.5.5.3.4.4.1.7.F.P.K.N.t.-.> X & a C a B a u V ( _ m + I.I.I.I.",
"I.I.I.I.% ( m & y B B m C a + X c 9.b.D.P.P.l.J o.3.,.=.o.+.=.,.,.=.+.o.*.,.3.o.J l.L.L.S.v.9.c . + a C a a a y - B / + I.I.I.I.",
"I.I.I.I.O # - m a a l B 2 + + $ 9.M.D.L.G.2.u X.O.(  ._ _ ..W W / ..$.#.X...G O...0 2.S.J.S.v.9.$ + + 6 B B m a i # + X I.I.I.I.",
"I.I.I.I.o % l 9 6 B 6 & = y l ; e.A.D.J.c.: D m 6 W / D )  .(  .....X.$.%.%.( 8 m W 7 x.S.K.H.x.: p : $ # 6 B f 6 # . I.I.I.I.I.",
"I.I.I.I.I.I.+ + 1 & # p B p D C F.P.P.L.@.p m p / Z W Z 9 5 n M M t 5 6 W $.X...p m p &.K.L.P.C.V C a u y + # i & o I.I.I.I.I.I.",
"I.I.I.I.I.I.I.I.. . - m ( G / _ V.P.P.A.H % %  .W W m , + < t t t t , @ & m / / ( * + H Z.P.P.V.G ( / C Z 2 . X I.I.I.I.I.I.I.I.",
"I.I.I.I.I.I.I.I.I.. 4  ./ X.( C h.K.P.M.H   5 $...9 + e 8 g E E Q ^ g 0 d + 0 / ( p   H n.K.P.j.Z _ _ _ ( 1 . I.I.I.I.I.I.I.I.I.",
"I.I.I.I.I.I.I.I.I.I.# ..X./ #.W 2.A.D.u.H . p $.X.# P [ R ^ i.i.i.[ ] ~ [ P & ) ( m . H t.S.S.6._ / / $.W + I.I.I.I.I.I.I.I.I.I.",
"I.I.I.I.I.I.I.I.I.I.+ _ $./ ..( +.G.S.t.H O V  ...< ~ ^ I T ^ i.[ [ I Y ^ ~ , ..$.W o H t.Z.S.+./ _ D $.( + I.I.I.I.I.I.I.I.I.I.",
"I.I.I.I.I.I.I.I.I.I.o f X.../ X.V w.t.r.-.* ( W / w Y ~ P R } p.p.} R P E Y 9 ..) C * -.r.t.w.B Z X./ $.m X I.I.I.I.I.I.I.I.I.I.",
"I.I.I.I.I.I.I.I.I.I.. # ( / Z #.p b :.q.;.* W _ C 1 g ~ [ { p.s.s.p.p.} ~ g 4 ( G ( - ;.q.:.b y / #._ X.% X I.I.I.I.I.I.I.I.I.I.",
"I.I.I.I.I.I.I.I.I.I.I.+ D m Z $.i 1 (  .Z * Z _ C + 9 E E R ~ ~ T g E ~ E 0 # W ( ..* Z _ _ - 2 _ ) ) _ + I.I.I.I.I.I.I.I.I.I.I.",
"I.I.I.I.I.I.I.I.I.I.I.+ 6 a / D y + i Z m & B / C + & < , % 1 < < < % , < , + C Z C & f C p X p / Z C a O I.I.I.I.I.I.I.I.I.I.I.",
"I.I.I.I.I.I.I.I.I.I.I.X - V B u m + 6 Z C 6 i Z C + e R 0 e P E Y n 8 < P e + B Z i 6 Z Z 2 o 6 C f p 2 X I.I.I.I.I.I.I.I.I.I.I.",
"I.I.I.I.I.I.I.I.I.I.I.. 2 C p C B + = B B = 2 Z B + q I 8 < P [ ^ I 0 5 I q + B Z 2 , B B = + p a B a = . I.I.I.I.I.I.I.I.I.I.I.",
"I.I.I.I.I.I.I.I.I.I.I.. 6 V u C B + . + + o 2 Z C + O , @ O < e e w % % * O + B Z 2 + + + X + B a a C 2 . I.I.I.I.I.I.I.I.I.I.I.",
"I.I.I.I.I.I.I.I.I.I.I.X $ p y a 2 O I.I.I.X 1 m i + I.I.I.I.I.I.I.I.I.I.I.I.+ p m - . I.I.I.O 2 B a y & X I.I.I.I.I.I.I.I.I.I.I.",
"I.I.I.I.I.I.I.I.I.I.I.I.I.I.I.I.I.I.I.I.I.I.I.I.I.I.I.I.I.I.I.I.I.I.I.I.I.I.I.I.I.I.I.I.I.I.I.I.I.I.I.I.I.I.I.I.I.I.I.I.I.I.I.I.",
"I.I.I.I.I.I.I.I.I.I.I.I.I.I.I.I.I.I.I.I.I.I.I.I.I.I.I.I.I.I.I.I.I.I.I.I.I.I.I.I.I.I.I.I.I.I.I.I.I.I.I.I.I.I.I.I.I.I.I.I.I.I.I.I.",
"I.I.I.I.I.I.I.I.I.I.I.I.I.I.I.I.I.I.I.I.I.I.I.I.I.I.I.I.I.I.I.I.I.I.I.I.I.I.I.I.I.I.I.I.I.I.I.I.I.I.I.I.I.I.I.I.I.I.I.I.I.I.I.I.",
"I.I.I.I.I.I.I.I.I.I.I.I.I.I.I.I.I.I.I.I.I.I.I.I.I.I.I.I.I.I.I.I.I.I.I.I.I.I.I.I.I.I.I.I.I.I.I.I.I.I.I.I.I.I.I.I.I.I.I.I.I.I.I.I.",
"I.I.I.I.I.I.I.I.I.I.I.I.I.I.I.I.I.I.I.I.I.I.I.I.I.I.I.I.I.I.I.I.I.I.I.I.I.I.I.I.I.I.I.I.I.I.I.I.I.I.I.I.I.I.I.I.I.I.I.I.I.I.I.I.",
"I.I.I.I.I.I.I.I.I.I.I.I.I.I.I.I.I.I.I.I.I.I.I.I.I.I.I.I.I.I.I.I.I.I.I.I.I.I.I.I.I.I.I.I.I.I.I.I.I.I.I.I.I.I.I.I.I.I.I.I.I.I.I.I.",
"I.I.I.I.I.I.I.I.I.I.I.I.I.I.I.I.I.I.I.I.I.I.I.I.I.I.I.I.I.I.I.I.I.I.I.I.I.I.I.I.I.I.I.I.I.I.I.I.I.I.I.I.I.I.I.I.I.I.I.I.I.I.I.I.",
"I.I.I.I.I.I.I.I.I.I.I.I.I.I.I.I.I.I.I.I.I.I.I.I.I.I.I.I.I.I.I.I.I.I.I.I.I.I.I.I.I.I.I.I.I.I.I.I.I.I.I.I.I.I.I.I.I.I.I.I.I.I.I.I.",
"I.I.I.I.I.I.I.I.I.I.I.I.I.I.I.I.I.I.I.I.I.I.I.I.I.I.I.I.I.I.I.I.I.I.I.I.I.I.I.I.I.I.I.I.I.I.I.I.I.I.I.I.I.I.I.I.I.I.I.I.I.I.I.I."
};
