/* XPM */
static char *result[] = {
/* columns rows colors chars-per-pixel */
"64 64 223 2 ",
"   c #353F44",
".  c #3D4C44",
"X  c #384648",
"o  c #3F534B",
"O  c #3E5756",
"+  c #3F5A65",
"@  c #454F48",
"#  c #46564A",
"$  c #4D5D4B",
"%  c #434E54",
"&  c #445355",
"*  c #4C5E55",
"=  c #455558",
"-  c #4A5459",
";  c #465B59",
":  c #4B5C5B",
">  c #525A59",
",  c #4F614C",
"<  c #52644D",
"1  c #586B4E",
"2  c #4E6256",
"3  c #4B635D",
"4  c #536354",
"5  c #576956",
"6  c #52655B",
"7  c #546B5D",
"8  c #5A6D5B",
"9  c #5D7352",
"0  c #5B735D",
"q  c #5F785E",
"w  c #616C5F",
"e  c #637757",
"r  c #657C55",
"t  c #647C5E",
"y  c #4B5D64",
"u  c #535D62",
"i  c #4C6462",
"p  c #4D6B65",
"a  c #4E636F",
"s  c #536464",
"d  c #5B6265",
"f  c #546C64",
"g  c #5A6B65",
"h  c #5C6569",
"j  c #546D6C",
"k  c #5A6B6B",
"l  c #5B7462",
"z  c #587A67",
"x  c #54736D",
"c  c #5C736B",
"v  c #567675",
"b  c #5C7472",
"n  c #5B7C73",
"m  c #5D787A",
"M  c #62656A",
"N  c #636C6E",
"B  c #696A6E",
"V  c #627462",
"C  c #637C62",
"Z  c #65776F",
"A  c #667B6A",
"S  c #626F70",
"D  c #6C6E72",
"F  c #647474",
"G  c #6D7374",
"H  c #687B76",
"J  c #65777B",
"K  c #647C7B",
"L  c #6C7A7A",
"P  c #717576",
"I  c #727578",
"U  c #757B7C",
"Y  c #7C7E7E",
"T  c #698157",
"R  c #6A845B",
"E  c #6E885B",
"W  c #718C5C",
"Q  c #79965E",
"!  c #7B965F",
"~  c #5C8367",
"^  c #5D8476",
"/  c #668262",
"(  c #6B8561",
")  c #6D8A63",
"_  c #64846B",
"`  c #668B69",
"'  c #688E68",
"]  c #718661",
"[  c #728D62",
"{  c #748A68",
"}  c #6D9167",
"|  c #6D9269",
" . c #759363",
".. c #799563",
"X. c #769966",
"o. c #7C9B65",
"O. c #73966A",
"+. c #769969",
"@. c #7A9C6B",
"#. c #688977",
"$. c #6B8B76",
"%. c #65827B",
"&. c #69837B",
"*. c #718879",
"=. c #6D9172",
"-. c #789B77",
";. c #7EA067",
":. c #7FA16C",
">. c #7EA178",
",. c #819C5F",
"<. c #9DB45E",
"1. c #A2B65E",
"2. c #869562",
"3. c #829D64",
"4. c #899D62",
"5. c #929E62",
"6. c #84A366",
"7. c #8AA565",
"8. c #8DAA66",
"9. c #83A46A",
"0. c #87A86C",
"q. c #8DAA6C",
"w. c #92A564",
"e. c #93AE63",
"r. c #95AB67",
"t. c #9AAE65",
"y. c #96B061",
"u. c #9BB261",
"i. c #99B06A",
"p. c #86A873",
"a. c #A5AF64",
"s. c #A3B363",
"d. c #ABB562",
"f. c #B0B664",
"g. c #597B84",
"h. c #667E85",
"j. c #7C7D81",
"k. c #658483",
"l. c #6B8482",
"z. c #658983",
"x. c #6B8A84",
"c. c #68858A",
"v. c #6B8A8A",
"b. c #768685",
"n. c #7C8384",
"m. c #738D8B",
"M. c #7B8A8A",
"N. c #6D9288",
"B. c #78958B",
"V. c #6A8B93",
"C. c #758F96",
"Z. c #6F9393",
"A. c #6A919D",
"S. c #739393",
"D. c #759896",
"F. c #7C9A94",
"G. c #759A9C",
"H. c #7A9C9D",
"J. c #79A09F",
"K. c #759BA3",
"L. c #7A9CA3",
"P. c #7DA4A4",
"I. c #7DA2A9",
"U. c #838383",
"Y. c #84878A",
"T. c #858B8B",
"R. c #8B8D8E",
"E. c #87918D",
"W. c #868F90",
"Q. c #8D8E91",
"!. c #869497",
"~. c #8D9192",
"^. c #839C95",
"/. c #939394",
"(. c #919995",
"). c #939798",
"_. c #95999B",
"`. c #9A9B9C",
"'. c #83A78A",
"]. c #8AA89B",
"[. c #95A69E",
"{. c #869DA5",
"}. c #9D9EA1",
"|. c #8AAAA7",
" X c #84ACAC",
".X c #9DA3A4",
"XX c #97ABA7",
"oX c #99B4A9",
"OX c #8FADB0",
"+X c #8BB3B4",
"@X c #96B9B6",
"#X c #A2A2A3",
"$X c #A4A6A9",
"%X c #A3AAAC",
"&X c #ACACAC",
"*X c #AAB3AE",
"=X c #ABAFB1",
"-X c #B0AFB0",
";X c #ACB7B6",
":X c #A4BFB3",
">X c #B2B3B3",
",X c #B1B8BB",
"<X c #BABABA",
"1X c #A9C5B9",
"2X c #B3C7BB",
"3X c #B6BEC1",
"4X c #A9CDC5",
"5X c #B8CBC6",
"6X c #B5D3C4",
"7X c #B4D4C9",
"8X c #B9D8C9",
"9X c #BBDBCC",
"0X c #BDDFD2",
"qX c #BFE0D2",
"wX c #C4C6C7",
"eX c #CBCCCC",
"rX c #C5D4CC",
"tX c #C1E0CE",
"yX c #C3E3D2",
"uX c #C9E6D5",
"iX c #C8E8D7",
"pX c #CDEDDA",
"aX c #CFF0DC",
/* pixels */
"<XU./.#XQ.U j.).b.G R.T.c : : 7 5 2 A (.W.G b.M.l.U T..Xb.Z : f 8 & Z T.U *.%XW.k Y.wX}.M /.eX>X2.`.}.Q.I n.~.H N $XwXY B -XeX`.",
"<XY.U 5 < - i c.6 b B.A  .7 [ .... ./ c x.#.O.D. X'.B.B.B.z 8 o...0 ../ C *.v.A R : G > # U eX>XY.D 5 - = j K / 8 d N 1 @ &XeX`.",
"`.-Xj.e ! R ) &.) 3.@. .o.R o.8.8.8.7.:.p.q.p.>.'.p.q.p.0.' ;.0.7.o.o.....:.:.9.E r @ r W 5 Q.#X-XP r ] E _ &.[ q 1 . ! e P `.&X",
"/./.> 1 7.q.4.4.q.8.e.e.e.8.8.u.<.<.y.y.r.u.7.q.u.q.e.<.e.;.8.e.<.y.<.u.7.8.q.e.6.6.9 ..6.e M /.Y.$ e w.r.2.w.7.7.Q r 6.Q 4 I -X",
"`.V ! 7.<.s.d.d.s.e.1.d.s.u.s.<.<.u.<.<.<.<.s.s.u.s.1.d.s.s.<.<.<.u.1.d.s.s.s.s.y.8.3.q.7.o.C Y.w 6.7.t.d.f.a.s.e.4.7.8.6.Q Z &X",
"<XM , 5.f.1.d.u.e.u.d.d.d.d.e.e.y.e.y.y.s.1.s.u.y.s.d.d.d.s.8.y.y.y.y.1.1.1.u.y.y.u.d.a.7.W P [.> 1 t.f.1.d.y.e.e.a.d.i.o.t T.).",
"<XM r w.1.1.<.<.<.<.<.<.<.<.u.<.<.s.u.u.<.<.<.<.1.u.u.u.u.<.u.<.u.s.<.<.<.u.s.<.u.u.d.s.8.X.M.-X> E e.1.u.<.1.1.<.s.f.e.8./ %X`.",
"}.U 9 w.s.t.a.<.u.e.e.u.8.<.<.<.<.<.1.1.s.y.s.<.y.y.y.u.e.<.1.<.u.1.1.d.u.u.1.<.y.u.u.8.7.o.G `.B T 8.1.t.a.<.y.y.<.t.6.7.) n.&X",
"~.n.* 7.d.s.s.<.<.y.y.u.u.u.1.u.e.y.u.s.s.u.s.<.u.y.u.u.<.<.<.y.8.<.u.d.s.s.u.<.<.u.e.O.' / g Q.F 5 r.f.s.u.<.<.<.y.6.} / C N >X",
"`.N [ e.f.d.1.1.d.u.q.r.y.1.1.<.1.u.<.<.1.u.1.1.s.e.q.y.<.1.<.<.<.<.<.<.<.1.s.s.u.e.e.8.3.o.C Q.h o.i.f.s.1.s.d.u.8.r.0.o.o.H &X",
"-X& ) q.a.d.d.d.d.d.f.f.f.1.1.<.y.e.y.e.u.1.d.f.d.d.f.f.1.1.1.<.y.i.y.y.<.1.d.d.f.d.d.s.e.9.*.W.% X.r.s.d.d.d.f.d.f.d.a.q.X.M.).",
">X] 9.7.q.d.d.<.y.e.a.u.1.1.1.<.u.s.u.y.<.1.1.u.r.u.s.1.d.1.<.<.s.s.y.y.1.1.1.<.q.s.s.d.s.9._ M.[ 6.8.u.d.d.<.y.e.s.s.d.t.X.#.R.",
"Q.l.'.>.@.8.<.<.<.<.<.<.1.1.1.1.<.<.<.<.<.<.1.<.s.<.<.<.<.1.<.1.<.1.<.<.<.<.<.<.<.<.<.1.i.-.n L x.'.>.o.8.<.1.<.u.<.1.s.q.#.K .X",
"U H p.:.X.7.e.<.1.<.y.y.u.<.<.<.y.<.<.8.y.<.1.1.<.<.y.<.u.<.<.<.y.<.y.8.y.<.1.1.1.e.t.u.q.` k.b &.0.@.o.7.y.<.<.<.y.u.u.9.^ k.$X",
"/.v.$.O.7.<.<.s.1.<.e.e.y.u.y.8.y.y.<.y.<.<.s.s.<.y.y.8.u.y.8.8.y.y.<.u.<.u.1.s.<.8.y.e.e.>.N.b k.=.O.8.u.u.d.u.y.e.e.e.p.-.&._.",
"<Xl.O.9.q.d.u.d.s.u.y.<.1.<.y.y.<.u.1.d.1.s.s.d.u.<.<.<.s.<.y.y.<.1.s.1.d.u.f.d.u.<.<.1.s.9.g I &.@.0.e.s.s.f.u.<.y.1.d.i.O.s U.",
">XL @.8.t.1.d.u.u.1.1.1.1.1.e.y.e.u.s.s.1.s.1.u.s.<.<.1.1.u.y.e.e.<.a.d.1.1.s.u.1.1.1.1.u.o.6 L &.9.8.u.s.1.u.1.1.1.1.s.e.) s T.",
"Y.j ..8.u.u.<.<.y.y.1.d.d.s.y.u.s.u.<.<.<.<.<.u.y.u.1.d.f.u.u.u.s.t.<.1.<.<.<.e.e.s.1.f.t.....h g o.e.1.<.<.<.e.<.s.d.d.2.o.] `.",
"P l 6.i.s.u.y.s.s.e.<.<.u.1.1.s.d.d.1.d.1.e.u.d.u.y.<.y.1.1.1.d.d.1.1.1.t.e.1.d.t.<.1.u.t.8 6 & C 7.i.s.e.y.s.s.e.<.<.s...8 * }.",
"Y.[ 7.u.s.<.y.y.1.<.<.y.<.<.<.<.<.<.u.1.<.1.e.u.1.<.<.y.<.<.<.<.1.<.<.<.<.<.e.1.1.<.e.t.s... .4  .7.s.u.<.y.<.1.<.<.e.s.r. .] ~.",
"$X:  .r.e.u.e.7.y.<.<.<.<.<.y.<.<.8.r.u.e.e.8.8.y.<.<.<.<.<.y.<.e.e.8.u.e.e.8.8.<.<.<.<.5...3.* 2 3.r.e.t.8.7.e.<.1.<.y.2.2. .P ",
"%XV 6.( w.s.u.u.<.<.<.<.<.<.<.1.y.<.<.1.s.<.<.<.<.<.<.<.<.<.<.<.u.<.u.1.u.<.<.<.<.<.<.8.[ R 6 & t 3.( t.s.<.<.<.<.<.e.3.[ 0 : G ",
"U 8  .t 7.u.<.<.y.8.8.8.8.y.<.<.<.<.1.f.d.1.<.y.y.y.8.8.8.<.<.<.<.1.1.d.1.1.<.e.8.e.8.e.s.2.f % t [ ( 7.<.<.y.e.y.e.e.e.t.] 7 _.",
"B & 0 ( o.y.1.u.<.<.<.<.e.e.<.<.1.<.1.d.t.<.s.<.y.<.<.<.8.y.<.<.1.1.d.d.t.1.<.<.<.<.<.<.s.r. .= = q ( 3.<.1.s.<.y.<.<.t.d.7.C %X",
"R.: l  .r.s.d.d.s.e.d.d.d.s.u.<.<.<.<.<.<.1.d.s.u.s.1.d.s.s.u.<.<.<.<.1.<.1.d.s.y.s.d.f.t.W f k ; C ..r.d.d.d.u.y.1.d.d.5.C k }.",
"<X> a / r.f.s.u.e.u.d.1.d.s.e.e.e.e.e.<.1.<.1.y.e.s.1.d.d.1.8.y.r.e.y.1.1.1.u.e.u.s.1.f.a.e m G = j ' s.f.1.e.y.s.1.d.d.4.3 c.U ",
">XJ #.O.8.s.s.<.<.<.<.<.<.<.<.<.<.s.1.<.<.<.<.1.<.<.s.<.<.<.<.<.<.s.<.1.u.u.1.1.<.<.y.a.w.1 & F J #.X.e.d.s.<.<.1.<.<.a.,.# i n.",
"j.c z 9.8.u.s.<.<.e.e.s.8.<.<.<.y.<.1.1.d.t.s.<.e.e.u.t.8.<.<.y.y.<.1.1.s.u.1.u.e.e.u.i.e.3.e - x / 6.e.t.s.<.y.e.t.t.e.7.! 5 `.",
"P : l ' 6.u.s.<.<.e.e.u.y.<.1.<.e.y.<.s.s.u.s.1.<.<.e.u.u.<.<.<.8.<.u.d.t.u.u.1.u.y.u.s.a.8.1 - 3 l } 7.s.s.<.<.<.e.s.s.e.! $ &X",
").s X.o.7.d.d.d.1.s.r.r.u.<.<.1.<.<.<.<.<.<.1.1.d.e.r.t.<.1.<.<.<.<.<.<.1.1.s.d.s.e.i.8.o.3.e P s ;.o.e.d.d.d.d.y.t.q.7...,.w }.",
"<Xk _ ;.r.d.d.d.d.d.f.f.d.1.d.<.e.t.u.e.u.1.1.d.s.f.f.d.d.d.1.<.<.e.e.e.<.1.d.d.a.s.e.;.o.0 * Y.f ` 6.e.d.d.d.d.s.s.6.;.[ < h /.",
">X&.` 6.6.u.d.s.t.e.s.u.s.1.1.1.<.s.u.u.<.<.1.s.e.u.u.s.1.1.1.<.1.s.u.u.1.1.1.u.e.s.o.} } ) r N ^ | 9.7.s.s.u.e.t.r.X.} } W w U ",
"~.%.z } } O.;.y.y.<.<.<.1.<.<.<.<.<.<.<.<.<.1.1.<.<.<.<.<.1.1.<.1.1.<.u.<.<.<.<.u.<.e.e.6.9.-.S n ~ ' | O.6.<.e.<.u.y.7.7.p.#._.",
"U n z } ;.X.6.8.y.y.y.y.<.<.<.u.y.<.y.8.y.<.<.<.<.y.y.y.<.<.<.u.e.<.e.8.y.<.1.1.d.u.y.e.r.@.v.H n z +.:.X.7.8.<.d.u.e.e.7.=.c.&X",
").k.^ ' 0.8.y.d.u.y.y.y.y.u.e.8.y.y.<.<.<.<.s.d.<.y.y.y.u.y.8.8.<.e.<.<.s.u.1.1.s.t.s.1.t.[ c j %.n } 7.q.e.s.s.u.t.u.d.7.( c ~.",
"<XF C q.u.u.d.d.s.<.<.<.s.1.u.y.<.<.d.d.1.s.s.d.u.<.<.1.1.<.y.y.<.<.d.1.d.s.d.d.<.<.s.d.e.3.5 u b ' r.e.a.d.d.a.<.u.d.d.7.[ & D ",
"-Xh.l 7.i.d.1.<.u.u.1.1.1.1.y.y.8.y.u.s.1.1.s.u.<.1.1.1.1.u.y.y.e.u.u.s.1.1.1.u.<.1.1.d.7.8 : u F C q.s.s.1.<.1.1.1.s.s.[ 2 : I ",
"n.s 0 w.d.u.y.u.y.y.s.d.d.s.y.u.s.s.u.<.<.y.<.u.y.y.d.d.d.u.u.u.s.s.1.<.u.y.u.u.e.u.1.f.s... .= i C r.d.t.y.<.e.e.d.1.d.w...C ).",
"P ]  .r.f.y.y.s.d.y.<.<.y.1.<.<.d.1.1.d.1.y.y.d.u.y.<.y.<.<.<.s.d.1.1.d.<.y.s.d.u.<.u.t.s.r.t o ) ..t.d.y.y.1.s.<.<.u.s.1.o.2 _.",
"~.(  .6.u.u.<.y.<.<.<.y.<.<.u.y.<.<.u.1.y.<.y.u.1.<.<.y.<.<.<.<.<.<.u.<.y.y.y.<.1.<.y.s.d.8.3.5 W  .7.s.1.e.t.1.<.<.e.d.s.0.[ R.",
"%X6 7 ..8.y.e.8.e.<.<.<.<.<.<.<.u.y.e.u.e.y.8.e.y.<.<.<.<.<.<.<.y.8.8.u.y.8.8.e.y.<.1.1.d.q...: 3 8 6.8.y.8.8.e.<.<.<.d.s.6.) P ",
"$X{ .. .8.y.y.y.<.<.<.<.<.<.<.<.y.<.1.1.s.u.u.<.<.<.<.y.<.<.1.<.<.<.1.1.s.<.<.<.<.<.<.u.s.6.C k  .[ o.8.y.y.<.<.<.<.<.s.t...g Y.",
"U.V o.7.u.d.<.y.y.e.e.8.8.e.<.<.<.1.1.d.d.1.<.y.e.y.y.8.e.y.<.<.1.1.d.d.d.1.y.y.8.y.8.e.i.r.R s C o.0.s.d.<.y.y.e.8.8.e.t.9.l }.",
"D 8 9.8.u.u.1.d.<.<.<.<.e.e.<.<.<.1.1.d.u.1.d.u.<.u.<.<.e.y.<.<.1.1.1.s.u.1.s.s.<.<.<.s.s.e.) = t 6.y.u.s.1.s.u.<.<.<.s.a.7.l .X",
").C ) 9.e.e.s.d.u.u.d.d.d.s.y.<.u.y.<.<.<.1.d.s.y.u.d.d.s.s.y.<.u.u.<.<.<.1.d.u.e.s.f.f.e. .f j C  .6.y.e.d.d.t.u.f.f.s.7._ f (.",
"<XN i ( e.s.s.u.y.u.d.d.d.s.y.y.y.y.y.<.1.1.<.y.y.u.d.d.d.u.e.<.e.u.<.1.1.<.<.y.u.1.s.d.u.9.#.G u f [ e.d.1.y.y.u.1.d.d.r.@.n U ",
"&Xl.#.O.t.s.u.1.u.u.u.u.y.<.<.<.u.d.<.<.<.u.u.1.u.<.y.u.y.<.<.<.u.s.1.<.<.u.<.1.<.u.u.u.r.:.x.l.l.#.o.t.u.u.<.<.<.u.u.t.7.-.k.T.",
"n.L :.7.d.s.s.<.y.e.y.u.y.y.<.y.e.<.<.d.d.u.s.<.y.y.u.u.y.<.<.y.y.u.1.d.s.s.u.u.e.y.s.3.:.+.{ L &.9.w.d.s.s.<.y.e.u.t.o.:...*.&X",
"n.c.` w.f.u.s.u.<.<.e.e.t.<.1.<.y.y.<.s.s.u.s.<.1.y.e.e.<.<.1.<.e.<.u.s.u.u.<.1.y.y.8.| ` ` A H z.) t.d.u.s.<.<.<.e.6.' ` ` Z >X",
"_.c C w.d.1.1.d.d.s.i.t.u.1.1.1.u.u.<.<.<.<.1.d.d.u.t.s.s.1.1.<.<.<.<.<.1.1.d.d.s.e.e.r.7.9.) s f ( i.f.1.1.d.d.u.8.r.q.6.o.C Y.",
">Xj  .8.t.s.1.d.s.s.f.d.f.1.1.<.y.u.u.8.<.1.1.d.a.d.d.d.d.1.1.y.e.t.e.e.<.1.d.d.s.f.s.d.s.3.2 % 6 o.q.t.1.d.d.s.d.d.s.d.t.( & M ",
"-Xd 0 6.d.f.1.<.y.e.s.u.1.1.1.<.<.d.u.u.<.<.1.<.e.u.u.s.1.1.1.<.1.s.u.<.1.1.1.u.e.i.u.s.r.8.C - y C 7.d.f.1.<.y.e.e.s.s.8.6.* D ",
"/.D 5 R 5.d.1.1.1.<.u.u.1.d.1.1.u.<.<.y.<.1.1.1.s.<.u.<.1.1.<.<.<.<.<.y.u.<.1.1.s.u.d.d.y. .8 j.d 8 R t.d.1.<.s.s.u.d.s.7.R g $X",
"U.w ! 6.7.s.s.d.s.u.y.y.a.s.s.s.a.u.u.e.e.s.1.1.d.y.e.e.y.<.u.y.y.<.e.e.u.u.1.f.f.e.u.q.y.6.5 I r ,.6.w.a.1.d.d.s.y.y.8.8. .d >X",
".X4 $ W a.u.s.s.s.e.u.a.y.8.7.r.d.t.u.r.a.s.s.a.s.y.y.t.s.y.8.e.u.t.u.s.d.s.f.d.s.7.7.8.6.T & h > , ! 1.a.s.s.d.t.7.7.8.! 9 % /.",
">X-   r 7.0.9.q.7.0.q.u.q.7.0.8.s.d.s.8.q.t.8.[ 6.6.e.u.s.d.u.u.s.d.r.t.s.q.a.t.6.r Q  .3.@ O h %   W 8.6.8.7.9.o.e o.! W . : Y ",
">XM . o.E ) } ( X. .6.;. .9.6.6.7.e.q.:.7.8.6.q q }  .X.3.t.8.e.8.8.) o.6.:.7.6.9 . o # Q # X Y.- # 6.T | ) ) W <   . 9 W X s ).",
").}.X * * k.D.c } q _ / t E q / 7. .X.o.q.>.} l p l 7 z f t [ 6.6.[ R / :.| :.=.z p ^ i o . y .X~.X , ; N.S.l  .p n n ; o X J >X",
"/.,Xa i k.P.+XL.c x n x p v p 0 R 7 ^ >.]. Xv.G.P.x %.^ n p l t t b c &.=.x.N.J.D. X XL.v O v }.=Xy p V. X+XC.z. X X XN.i + h.>X",
"&X`.c.g.N.G.D.P.P.Z.%.b z.D.z.m J c m Z.P.P.+X+XS.c m.P. XH.k.j F S. XP.z.k.m.z.S.L.P.D.F.v.{.%X}.g.G.^.G.G.I.D.D.P.J.N.F.V.%X#X",
"<XU.n.C.1X].F.F.|.1X6Xb.k m z.l.1X].l.k.S.G.N.c.l.oX:XS.H.G.v.].4X|.Z.Z.v.1X2X].m.S.|.8X7XK.wX>Xj.m.@X0X^.S.F.l.x.v.|.9X@XOXeX_.",
">X/.).C.+X7XyX0XaXaXaX6X].XXoX8XiXuX8XXXF.H.^.oX8XpXpX:XoX@X1XyXiXyX1XoX9XpXqXiXyX7X1X9XOX{.<X&XQ.).L.4XyXyXyX8X2X6X1X7XK.%X<X}.",
"/.wX<Xn.V.K. X1XtXuXuXtXaXaXaXaX6XOX4XqXiXuXiX9X4XiXrXiXaXpXaXuX@X@X9XiXaXaXiX6X7X0X+XK.{.XXU.`.eX&Xj.A.L.+X9X7XyXqXOX{.OX`.U.-X",
"/.wX<XU./.3X%XE.*XeXrX;XuXaXaX2X*X,X{.OX4X@X XA.A.5X2X6XaXpXuX*X<X;X(.;XuXrX[.~.3X;X!.!.eX>XY `.eX-XY }.5X.X(.;XwXXXC.%XeX`.j.>X"
};
