/* XPM */
static char *result[] = {
/* columns rows colors chars-per-pixel */
"64 64 220 2 ",
"   c #1B1F2E",
".  c #1D212F",
"X  c #1E2230",
"o  c #222532",
"O  c #262934",
"+  c #2B2C34",
"@  c #272B38",
"#  c #292D39",
"$  c #312E35",
"%  c #2E313B",
"&  c #343136",
"*  c #3C3937",
"=  c #33343B",
"-  c #3B3539",
";  c #3C393D",
":  c #423A3B",
">  c #493E3D",
",  c #48473B",
"<  c #4D433C",
"1  c #51433F",
"2  c #544B3C",
"3  c #5D523E",
"4  c #62553F",
"5  c #2F3340",
"6  c #323641",
"7  c #363943",
"8  c #3B3D44",
"9  c #3A3D48",
"0  c #413F40",
"q  c #3E4044",
"w  c #3E414B",
"e  c #434244",
"r  c #4B4644",
"t  c #4D4945",
"y  c #43444C",
"u  c #47484A",
"i  c #4B4B4B",
"p  c #544540",
"a  c #5C4B42",
"s  c #524C48",
"d  c #5B544A",
"f  c #464952",
"g  c #464954",
"h  c #494C55",
"j  c #4F5159",
"k  c #545453",
"l  c #52545C",
"z  c #5B5A58",
"x  c #614F44",
"c  c #665245",
"v  c #695347",
"b  c #695848",
"n  c #745A4A",
"m  c #7A5E4C",
"M  c #665C52",
"N  c #776645",
"B  c #7E614D",
"V  c #746D4B",
"C  c #67645C",
"Z  c #776B59",
"A  c #565862",
"S  c #5D5E62",
"D  c #5F6062",
"F  c #5E616A",
"G  c #616265",
"H  c #6C6B65",
"J  c #63656C",
"K  c #696A6C",
"L  c #736E64",
"P  c #797668",
"I  c #6C6D73",
"U  c #686B74",
"Y  c #6E7076",
"T  c #737375",
"R  c #7C7B72",
"E  c #73757B",
"W  c #77787B",
"Q  c #7E7E7F",
"!  c #80624E",
"~  c #86694D",
"^  c #8B6C4F",
"/  c #8A734B",
"(  c #91714F",
")  c #967C4A",
"_  c #866952",
"`  c #887457",
"'  c #947450",
"]  c #9C7A51",
"[  c #94785C",
"{  c #A17F52",
"}  c #867B68",
"|  c #8A7D72",
" . c #8F8B4F",
".. c #9C804C",
"X. c #908C4C",
"o. c #968556",
"O. c #A6884E",
"+. c #A48252",
"@. c #A88653",
"#. c #AE8C52",
"$. c #B28E54",
"%. c #A89457",
"&. c #B69452",
"*. c #BA9654",
"=. c #BD9954",
"-. c #B4A85A",
";. c #968468",
":. c #878374",
">. c #928C76",
",. c #98937C",
"<. c #A58D6A",
"1. c #A6916F",
"2. c #AC9569",
"3. c #B69F6C",
"4. c #A99775",
"5. c #B59D76",
"6. c #B99F78",
"7. c #B9A177",
"8. c #BDA47A",
"9. c #C29C56",
"0. c #C6A056",
"q. c #CCA557",
"w. c #CFA858",
"e. c #D2A957",
"r. c #D2AA58",
"t. c #C7BC5C",
"y. c #D5AF60",
"u. c #D7B468",
"i. c #D9B66B",
"p. c #C0AB70",
"a. c #C1A77C",
"s. c #C2A97D",
"d. c #DABC77",
"f. c #D3CA5F",
"g. c #D4CC68",
"h. c #D6CD6A",
"j. c #DEC17E",
"k. c #DDD679",
"l. c #7C7D83",
"z. c #7F8083",
"x. c #818181",
"c. c #868788",
"v. c #8B8B8B",
"b. c #958D84",
"n. c #99988C",
"m. c #8C8D91",
"M. c #8F9195",
"N. c #939496",
"B. c #9B9B96",
"V. c #959699",
"C. c #9B9B9B",
"Z. c #A39984",
"A. c #A49B95",
"S. c #ADA68A",
"D. c #B1A583",
"F. c #BBAC86",
"G. c #B3AB8C",
"H. c #BCB18E",
"J. c #A6A594",
"K. c #BAB495",
"L. c #9B9DA1",
"P. c #A4A4A5",
"I. c #A5A6AB",
"U. c #AAAAAA",
"Y. c #BBB9A6",
"T. c #ADAEB2",
"R. c #AFB0B1",
"E. c #B3B3B3",
"W. c #B6B6B8",
"Q. c #BDBDBD",
"!. c #C5AD82",
"~. c #C7B587",
"^. c #C9B185",
"/. c #CCB689",
"(. c #CEB98C",
"). c #D3BD8C",
"_. c #C7BB95",
"`. c #D2BE91",
"'. c #DBC68A",
"]. c #CEC090",
"[. c #CDC39D",
"{. c #D5C395",
"}. c #DEC993",
"|. c #D6C69A",
" X c #DCCB9C",
".X c #E1C78B",
"XX c #E4DD86",
"oX c #E3CE93",
"OX c #E4D19C",
"+X c #ECE699",
"@X c #F0E99E",
"#X c #CDCAAB",
"$X c #D4CBA3",
"%X c #DBCFA3",
"&X c #DDD1A6",
"*X c #D5D1AB",
"=X c #E3D3A4",
"-X c #E5D8A8",
";X c #E5D9AB",
":X c #EADDAD",
">X c #EDDFB6",
",X c #ECE3AD",
"<X c #ECE0B0",
"1X c #EDE5B9",
"2X c #F4EEB0",
"3X c #FAF4B8",
"4X c #BEBFC2",
"5X c #C4C4C4",
"6X c #C4C5C9",
"7X c #CCCCCC",
"8X c #D4D4D1",
"9X c #E6DFC3",
"0X c #EFE9C2",
"qX c #FDF8C0",
"wX c #F5EED3",
"eX c #F7F1DB",
"rX c #E4E5E7",
"tX c #FAF7EB",
"yX c #F8F7F5",
"uX c #FDFDFC",
/* pixels */
"7X7X7XU.Q z.Q z.z.Q L.7X7X7X7X7X7XE.| z.x.l.l.| V.7X7X7X7X7X7XW.x.x.l.x.z.l.M.7X7X7X7X7X7XQ.c.Q x.x.Q Q v.5X7X7X7X7X7X7Xv.Q x.x.",
"7X7X7XU.Q Q :.z.z.Q P.7X7X7X7X7X7XE.l.z.:.x.Q l.V.7X7X7X7X7X7XW.x.x.l.| z.| v.7X7X7X7X7X7XQ.c.x.x.Q x.Q v.5X7X7X7X7X7X5Xv.x.x.Q ",
"7X7X7XU.Q z.z.| Q Q L.7X7X7X7X7X7XR.l.| l.Q :.Q V.7X7X7X7X7X7XW.x.x.| Z.n.x.m.7X7X7X7X7X7XQ.z.x.x.x.Q Q v.5X7X7X7X7X7X5Xc.x.R x.",
"U.P.P.U.P.P.I.U.P.P.P.U.U.P.P.P.I.P.I.I.I.I.I.P.P.P.A.n.Z.b.Z.,.| [ <./.,X*XY.R.U.P.P.P.U.U.U.P.P.P.P.P.P.P.P.P.P.P.U.P.U.P.P.P.",
"Q Q W P.7X7X7X7X7X7XR.Q :.Q Q Q Q C.7X7X7X7XI.| Z M b ! ( ( ( ( ^ _ ^ o.].,X3X;X_.n.c.Q x.v.7X7X7X7X7X7X5X:.Q Q Q Q z.:.4X7X7X7X",
"Q Q Q P.7X7X7X7X7X7XU.z.z.z.Q x.l.C.7X7X6Xm.0 + : > c { 9.9.e.9.*.{ ( ! ` ;.`.,X,X1X#Xb.Q v.5X7X7X7X7X7X5Xv.x.Q x.x.x.c.5X7X7X7X",
"Q z.l.P.7X7X7X7X7X7XU.x.z.z.x.Q l.L.7XW.l.5 $ p v ! ^ ] @.$.e.e.r.r.9.&.$.( ` 2.h.,X2XK.x.v.5X7X7X7X7X7X4Xv.x.x.x.Q Q c.5X7X7X7X",
":.l.Q U.7X7X7X7X7X7XU.Q z.z.:.x.| C.T.F 0 x m ! ! ^ ] ] *.9.9.9.$.9.r.r.r.9.] _  .t.@X1Xn.v.7X7X7X7X7X7X5Xz.x.x.Q x.x.c.5X7X7X7X",
"c.c.c.P.7X7X5X7X7X7XT.c.c.x.c.c.c.l.h + x ! ! ! ' *.q.r.e.r.q.*.+.' { 9.w.r.9.{ ^ %.OX3X#XC.4X5X7X5X7X5XQ.v.c.c.z.c.c.v.Q.5X7X5X",
"Q.Q.Q.P.c.v.v.v.v.v.L.#X4X4X4XQ.E.J X > m ! ! ' 9.r.e.r.r.r.e.e.q.#.^ ^ $.w.r.e.{ ' |.qXqX#XM.m.v.v.v.v.n.Q.Q.4XQ.Q.Q.Q.N.v.v.v.",
"7X7X7XU.Q | z.l.Q l.L.7X7X7X7X7XV.5 & v ! ! { $.r.r.r.e.r.r.e.e.r.q.$.( ^ 9.r.r.$._ ].qX3X1Xn.x.Q Q Q Q c.6X7X7X7X7X7X7Xc.Q x.x.",
"7X7X7XI.z.z.z.l.:.l.P.7X7X7X7XE.j + p ! ! _ $.9.9.9.9.9.9.q.e.e.r.r.r.@.^ ] 9.r.#._ ].3X3X3XY.:.x.x.x.Q v.5X7X7X7X7X7X5Xv.Q x.x.",
"7X7X7XU.Q :.l.:.l.Q P.7X7X7X7XP.5 : n ! ! ! ^ m x a x x m +.&.q.r.r.r.9.' _ $.w.$.n K.3XXX+X2XJ.x.Q x.Q v.5X7X7X7X7X7X5Xc.x.x.Q ",
"7X7X7XU.Q Q l.z.Q Q L.7X7X7X4XS & v ! ! ! ! n > O X . o - v ~ @.q.r.e.q.' ! ' *.^ r ,.3Xk.h.2X*Xb.Q Q Q v.5X7X7X7X7X8X5Xv.Q Q Q ",
"E.E.E.U.V.C.C.B.C.V.P.R.E.E.L.6 $ v ! ! ! ! m n x = X X X $ a ' q.r.r.q.' ! ^ ] a +  .@XXXf.k.3X#XB.B.B.B.R.E.E.E.E.E.R.C.B.B.B.",
"z.:.Q P.7X7X7X7X7X7XT.| z.z.T 5 . : n ! ! ! ! ! ! v - X X X & ! $.r.r.q.] ! ! v = o / k.@Xk.h.@X1X8X7X7X5Xc.x.Q x.Q Q c.5X7X7X7X",
"z.z.Q P.7X7X7X7X7X7XU.| l.U A # X O p ! ! ! ! ! ! ! 0 X X X + x ' 9.r.9.' m a % & e ,  .}.k.f.k.2X0X7X7X5Xz.x.x.x.x.l.z.5X7X7X7X",
"Q Q l.P.7X7X7X7X7X7XT.Q S 5 o o o o - v ! ! ! ! m c - + s - X - ! ' { ^ ! b $ 0 } 5.} k 1.).t.f.XX_.U.7X5Xv.x.x.x.x.z.>.5X7X7X7X",
"x.Q Q P.7X7X7X7X7X7XP.j @ @ - a v > o 1 ! ! ! m a $ = Z 5.[ u - m ! ! ! ! n x ;.a.a.8.F.!.8.p.g.h.V w T.5Xz.x.x.Q x.Q v.5X7X7X7X",
"x.x.:.I.7X7X7X7X7X7Xz.O - v m ! ! a o 1 ! ! ! v + o M 8.a.a.1.Z ! ! ! ! [ <.5.a.a.a.(.;X=X~.s.p.f.X.q Y E.z.x.z.x.x.Q z.4X7X7X7X",
"E.W.W.P.N.B.V.C.C.N.S o p ! ! ! ! 0 o a ! ! ! a o o H `.(./.!.6.1.1.2.2.6.a.a.s.!.).-X-X`.s.a.3.-.t.V O l P.E.E.E.E.W.E.B.B.B.B.",
"7X7X7XU.W Q Q Q Q F # $ v ! ! B n > a m ! ! n $ X o % C ,.Z.`.`.(.(.(.(.(.`.(.|.-X:X=X).(.(.s.a.7.-.-., # M.7X7X7X8X7X6Xz.x.Q z.",
"7X7X7XU.z.z.Q x.x.D O 0 B ! ! ! ! ! ! ! ! ! c + k M % $ O % C L H P | :.[.:X:X:X<X<X=X X;X;X{.s.7.2.-.X.= w W.5XQ.Q.Q.E.z.z.x.z.",
"7X7X7XP.Q z.z.:.z.D O p ! ! ! ! ! ! ! ! ! n - i _._.1.<.M r 0 s k | _._.-X<X<X<X<X:X<X<X<X<X=X/.8.Z  .-.3 @ F E w w w h K Q Q z.",
"7X7X7XU.Q :.z.Q Q D O 1 B ! ! ! ! ! ! ! m p O k %X|.!.a.8.6.6.!.&X;X,X>X,X<X<X<XK.:.:.[.,X,X:X|.8.;.M b V & o + 2 V 4 : * T :.l.",
"Q.Q.#XU.v.v.m.m.m.K O > m B ! B ! ! ! ! m & o H `./.a.a.a.a.a.(.:X>X<X<X<X<X<X<X,.o O >.;X:X,X=X~.7.d + V n O : ) -.w.) * h v.m.",
"c.x.z.I.6X7X6X7X7XN.@ o a ! ! ! ! ! ! ! x + 0 _. Xa.a.a.a.a.a.(.:X:X>X<X<X:X<X<X,.O X q K.<X<X<X{.;.: X - t O O 3 #.q.O.& j Q.5X",
"Q l.l.I.7X7X7X7X7XQ.F X & x B ! ! ! ! ! : . f [. X!.a.a.a.a.a.).:X<X,X<X<X<X<X<X[.D X % Z.:X<X<XZ.* . . o + ; a N ( ~ , O F 5X7X",
":.l.Q P.7X7X7X4XV.M.U 5 X # p m m ! ! ! :   0 _.^.a.a.a.a.a.^.=X<X<X<X<X<X<X<X<X,X| X X i [.,X[.C X O & > v m n a ; + O J E.7X7X",
"z.z.l.P.7X7XW.U # X 7 w 9 X o ; > n ! 0 + $ b.|.!.a.a.a.a.a./.;X>X<X<X<X<X<X<X<X,X:.X . 8 H.K.z X X * b m v > $ o o y J W.7X7X7X",
"Q | l.P.7XI.A 5 A j X X w w 9 6 o $ & O   0 _.|.!.a.a.a.a.a./.$XG.G.G.G.S.G.G.G.S.C X X O q 8 . . . + & # + + e & O F v.5X7X7X7X",
"U.I.U.P.z.w . w 7X8Xl.5 5 g c.m.l.K l 9 . 0 H.^.a.a.a./.`. X XG.e = @ O + # + + # o X X X . . . O S } 8   = ` 5.;.e g N.P.P.P.P.",
"7X7X7XU.f . . % Y 8XrX6Xl.5 w F L.L.l.9 # >.%X!.a.a.a.^. X-X<X&XK.| i u + X X X . . X X X X . % P $X Xk   r 5.s.8.M 5 L.v.l.l.l.",
"7X7X7XP.f O z C 6 A 4XyXrXL.l.7 6 9 9 @ % S.{.!.s.s.a.s.!./.`. X&X=X%X$X>.P C # O O X X X = L ,.&X=XF.t   e 2.7.;.0 5 C.v.| | z.",
"7X7X7XU.f % G. X>.y l U W.yXyX6XV.h w w = i M ;.1.1.1.1.1.1.1.4.!.(. X-X:X<X$XS.S.Z.k X X z *X,X X^.7.d O O t s : + O l Y | l.l.",
"7X7X7XP.u = D.d.u./.,.H T I.4XyXyXrXrX8XL.Y E I 0 - 7 - 7 - = d 6.a.s.^.{. X=X<X<X:XL . q G.-X{.s.s.s.;.;   . . > b 0 + 9 E z.x.",
"6X6X7XP.g % D.i.r.u.d.}.%XD.S.9XwXeXuXuXuXyXuXrXT.I.I.I.I.N.7 r 6.a.a.a.8.s.!.`. X-XL . q [.=Xs.a.a.a.4.> . O - b ! m & 6 l.c.c.",
"m.v.v.J.K % D.i.w.r.r.r.i.i.oXOX:X1X1X0XeXtXtXtXuXuXuXuXuX8X0 i 6.s.a.a.s.s.s.8.{.-XL . q [.=X!.a.s.a.4.;   + x ! B x + w T.4X4X",
"z.z.Q L.U = D.i.e.r.r.r.q.r.y.i.-X<X<X<X<X<X>X1XwXwXtXuX>X3.* t 5.8.a.a.a.a.8.s.{.-XH . q [.&Xs.a.s.5.Z y y @ & > > = = l.5X7X7X",
"z.z.:.L.U % D.i.e.r.r.r.r.e.e.i.-X<X:X<X<X<X<X<X<X:XeXuX'.&.* t 7.s.a.a.a.a.a.s.].-XH . 7 _.=X8.a.4.M k m.Q A 7 6 7 l T Q.7X7X7X",
"Q :.Q L.U = D.i.e.e.r.r.e.r.e.i.:X<X<X<X<X<X<X<X<X<XeXyX.X&.* r 4.a.s.s.a.a.a.a.`.;XP # P *X&X8.;.i % N.5Xc.Q W W W Q c.5X7X7X7X",
"z.z.Q L.Y % D.i.e.r.e.r.e.r.e.i.OX:X<X<X<X:X<X<X<X>XwXtX.X&.* + t Z 1.6.s.a.a.a.`.:X_.G.&X,X X;.; X # m.Q.c.Q z.l.| Q c.5X7X7X7X",
"V.C.C.P.F % D.j.y.r.r.r.r.r.e.i.oX`.&X<X<X<X:X<X<X<X1XwX.X&.- X . O = M } 6.8.p.(.-X<X>X,X*X:.= * * o w N.C.C.C.L.C.C.C.T.R.E.E.",
"7X7X7XU.u % G.,XoXd.u.r.e.e.e.i.}.!.^. X:X<X<X<X:X<X:X=Xi.&.* * 4 & $ + O s d Z 4.8.F.!.8.C $ 2 O.O.: o j Q.7X7X7X7X7X6Xv.z.| Q ",
"7X7X7XP.g % G.,X<X:XOX.Xi.r.e.i.oXs.s.!.{.:X<X<X<X<X,Xd.r.&.* 2 =.&.#.N < O . + ; ; * * * + 4 &.r.q.3 . 7 E.7X7X7X7X7X5Xc.Q z.Q ",
"7X7X7XP.g % H.>X<X<X<XOX'.).u.d.OX{.(.s.^.`.:X<X<X<X,Xd.e.&.* < =.q.r.e.9./ N 4 + O + + & N 0.r.r...* . 7 U.7X7X7X7X7X6Xv.z.x.Q ",
"7X7X7XU.g % G.,X<X<X<X{.s./.).oXOXd.)..X}.&X:X:X,X<X;X;.O.&.* + 2 N O.9.e.e.e.9.O.O.O.#.$.q.r.r.=.3 . + + J Q.7X7X7X7X5Xv.Q :.z.",
"7X7X7XU.D ; R &X<X<X<X X^.s.s.(.}.e.r.y.y.d..X.X}.&X&XP ..&.* & 3 1 3 ^ #.&.q.e.r.r.r.r.r.w.=./ 3 + : a + g Q.7X7X7X7X5Xv.z.z.z.",
"N.N.N.U.T.j 6 S.:X:X<X:X{.s.8./..Xy.r.r.e.r.r.=.V Z z , ..&.* * m ! m ! ! ^ ' @.9.9.9.9.+.] ^ c c c n n $ 9 v.V.V.V.N.C.E.E.W.E.",
"Q Q Q P.7Xc.6 k $X<X<X<X-X/.8./.}.y.r.r.e.r.r.q.=.o.q o ..&.* * m ! ! ! ! ! ! ! _ ^ ^ _ ! m ! ! B ! B n $ 6 E :.| z.Q c.5X7X7X7X",
"l.:.Q P.7X6Xm.9 } -X<X<X<X X/. XoXy.e.e.r.r.r.r.r.d.R + ) *.* * m ! ! ! ! ! ! ! ! ! ! ! ! ! ! ! ! ! B < O w W | z.z.Q c.5X7X7X7X",
"z.Q Q P.7X7X4XS g G.<X<X<X-X`.=X.Xr.r.e.r.e.e.r.y.'.} + ..&.* * m ! ! ! ! m ! ! ! ! ! ! ! ! ! ! ! ! v + 5 U z.x.z.z.Q c.5X7X7X7X",
"Q Q Q P.7X7X7XQ.E k Z.;X<X:X&XOXy.r.r.e.r.r.w.w.j.H.d b O.N + * m ! ! ! ! ! ! m ! ! ! ! B B ! ! B n :   7 T x.x.l.:.Q c.5X7X7X7X",
"N.v.v.P.Q.Q.Q.Q.E.W h :.&X<X<X}.-.w.r.e.r.r.r.j.{.P 4 ..4 O + 2 m ! ! ! ! ! ! ! ! ! ! ! B B b b 1 & O o g c.v.v.m.M.v.N.W.Q.4X#X",
"7X5X7XU.x.c.x.c.c.z.A % C [.<X_.V 0.r.r.r.y.j.].P # 2 2 o . o & p 0 p p p p p p p p 1 p p < + o o X o y W 5X5X7X7X5X7X5Xv.x.z.c.",
"7X7X7XU.Q :.l.x.z.Q v.U % d G.n.b 0.r.e.u.'.H.z o . . . . X . X o X X X X X X .   X     . X O . . . O l c.5X7X7X7X7X7X5Xv.Q l.l.",
"7X7X7XI.Q Q x.Q x.Q C.#Xl.9 5 5 3 0.r.i.}.4.u X X X X X . . X # 7 7 7 7 7 7 8 g h h h h h l h q % X X w H E.7X7X7X7X7X5Xc.z.z.z.",
"7X7X7XU.:.x.Q x.Q Q P.7X6XV.w . , =.j.{.:.7 X X O X X X O 7 F K M D S z S S K m.M.N.N.M.N.v.D S l % X X w m.R.6X7X7X7X5Xv.| z.Q ",
"7X7X7XU.l.z.l.Q Q Q C.7X7X7XT.A % z 4.H # X % 7 6 X . 8 Y c.V.v.F D D S D G K N.N.V.V.V.V.v.G D D u O X # I V.E.7X7X7X5Xv.Q Q Q ",
"P.P.P.P.U.U.U.U.U.U.U.P.P.P.P.m.j 5 6 # # l K f # O 7 F W W W W l.l.Q Q | W l.W W W W W W W Q Q l.W K A S l T v.P.P.P.P.P.U.P.U.",
"Q Q Q P.8X7X7X7X7X7XU.Q l.Q Q z.W z.N.l.Q m.M.z.I k l F D z D K N.V.V.V.V.V.v.S z D D D S K N.V.V.V.V.V.m.G G I Q Q Q c.5X7X7X7X",
"Q Q Q P.7X7X7X7X7X8XU.z.l.Q :.Q :.L.7XQ.L.V.N.V.c.D D G D D D I N.V.N.N.V.V.v.F D D D D S H m.V.N.V.V.N.m.K T Q z.z.:.c.5X7X7X7X",
"z.:.Q P.7X7X7X7X7X7XU.z.:.z.z.z.Q C.7X7XQ.U.N.V.c.D D D D D G K N.V.N.V.N.N.v.F D D D D D K M.N.V.V.N.V.V.l.Q x.Q Q Q c.5X7X7X7X",
"z.Q Q P.7X7X7X7X7X7XU.z.z.Q z.z.Q V.7X7X7X5XU.P.c.D D D D D D I N.N.V.N.V.N.v.F D D D D S K N.N.V.V.L.U.W.c.:.Q x.x.Q c.5X7X7X7X"
};
