/* XPM */
static char *result[] = {
/* columns rows colors chars-per-pixel */
"64 64 5 1 ",
"  c #161C2E",
". c #506A69",
"X c #669D9D",
"o c #8CC3C4",
"O c None",
/* pixels */
"OOOOOOOOOOOOOOOOOOOOOOOOOOOOOOOOOOOOOOOOOOOOOOOOOOOOOOOOOOOOOOOO",
"OOOOOOOOOOOOOOOOOOOOOOOOOOOOOOOOOOOOOOOOOOOOOOOOOOOOOOOOOOOOOOOO",
"OOOOOOOOOOOOOOOOOOOOOOOOOOOOOOOOOOOOOOOOOOOOOOOOOOOOOOOOOOOOOOOO",
"OOOOOOOOOOOOOOOOOOOOOOOOOOOOOOOOOOOOOOOOOOOOOOOOOOOOOOOOOOOOOOOO",
"OOOOOOOOOOOOOOOOOOOOOOOOOOOOOOOOOOOOOOOOOOOOOOOOOOOOOOOOOOOOOOOO",
"OOOOOOOOOOOOOOOOOOOOOOOOOOOOOOOOOOOOOOOOOOOOOOOOOOOOOOOOOOOOOOOO",
"OOOOOOOOOOOOOOOOOOOOOOOOOOOOOOOOOOOOOOOOOOOOOOOOOOOOOOOOOOOOOOOO",
"OOOOOOOOOOOOOOOOOOOOOOOOOOOOOOOOOOOOOOOOOOOOOOOOOOOOOOOOOOOOOOOO",
"OOOOOOOOOOOOOOOOOOOOOOOOOOOOOOOOOOOOOOOOOOOOOOOOOOOOOOOOOOOOOOOO",
"OOOOOOOOOOOOOOOOOOOOOOOOOOOOOOOOOOOOOOOOOOOOOOOOOOOOOOOOOOOOOOOO",
"OOOOOOOOOOOOOOOOOOOOOOOOOOOOOOOOOOOOOOOOOOOOOOOOOOOOOOOOOOOOOOOO",
"OOOOOOOOOOOOOOOOOOOOOOOOOOOOOOOOOOOOOOOOOOOOOOOOOOOOOOOOOOOOOOOO",
"OOOOOOOOOOOOOOOOOOOOOOOOOOOOOOOOOOOOOOOOOOOOOOOOOOOOOOOOOOOOOOOO",
"OOOOOOOOOOOOOOOOOOOOOOOOOOOOOOOOOOOOOOOOOOOOOOOOOOOOOOOOOOOOOOOO",
"OOOOOOOOOOOOOOOOOOOOOO.......OOOOOOOOOOOOOOOOOOOOOOOOOOOOOOOOOOO",
"OOOOOOOOOOOOOOOOOOOOO.................OOOOOOOOOOOOOOOOOOOOOOOOOO",
"OOOOOOOOOOOOOOOOOOOO...ooooo............OOOOOOOOOOOOOOOOOOOOOOOO",
"OOOOOOOOOOOOOOOOOOO...oooooooXXXXXX......OOOOOOOOOOOOOOOOOOOOOOO",
"OOOOOOOOOOOOOOOOOO...XooooooooooXXXXXX.....OOOOOOOOOOOOOOOOOOOOO",
"OOOOOOOOOOOOO........XoooooooooooXXXXXXX... OOOOOOOOOOOOOOOOOOOO",
"OOOOOOOOOOOO......XXXXoooooooooooXXXXXXXXX.  OOOOOOOOOOOOOOOOOOO",
"OOOOOOOOOOOO..ooooXXXXXoooooooooooXXXXXXXXX  OOOOOOOOOOOOOOOOOOO",
"OOOOOOOOOOO .oooooooXXXooooooooooooXXXXXXXX    OOOOOOOOOOOOOOOOO",
"OOOOOOOOO   .ooooooooXXooooooooooooooooXXXX      OOOOOOOOOOOOOOO",
"OOOOOOOO    XoooooooooXooooooooooooooooooo        OOOOOOOOOOOOOO",
"OOOOOOO   XXXXooooooooooooooooooooooooooo......X   OOOOOOOOOOOOO",
"OOOOOO   XXXXXXooooooooooooooooooooooooXXXX.....X   OOOOOOOOOOOO",
"OOOOOO  XXXXXXXoooooooooooooooooooooooXXXXXXX....X  OOOOOOOOOOOO",
"OOOOO   XXXXXXXooooooooooooooooooooooXXXXXXXXX...X   OOOOOOOOOOO",
"OOOOO  XXXXXXXXoooooooooooooooooooooXXXXXXXXXX...XX  OOOOOOOOOOO",
"OOOOO  XXXXXXXXXoooooooooooooooooooXXXXXXXXXXX..XXX   OOOOOOOOOO",
"OOOOO  XXXXXXXXX ooooooooooooooooooXXXX......          OOOOOOOOO",
"OOOOOO XXXXXXXXX  oooooooooooooooooooo............      OOOOOOOO",
"OOOOOO  XXXXXXXX    oooooooooooooooo...............XX   OOOOOOOO",
"OOOOOOO XXXXXXXXX    oooooooooooo..XXXXXX............X   OOOOOOO",
"OOOOOOOO XXXXXXXX  oooo        ..XXXXXXXXX............X   OOOOOO",
"OOOOOOOO  XXXXXXXX XXXooo       XXXXXXXXXXX...........XX  OOOOOO",
"OOOOOOOOO XXXXXXXX XXXXoooo   XXXXXXXXXXXXX............X  OOOOOO",
"OOOOOOOOOO XXXXXXX XXXXooooXXXXXXXXXXXXXXXXX...........X   OOOOO",
"OOOOOOOOOOOXXXXXXX XXXXoooXXXXXXXXXXXXXXXXXX...........XX  OOOOO",
"OOOOOOOOOOOOXXXXXX XXXoooXXXXXXXXXXXXXXXXXXX...........XX  OOOOO",
"OOOOOOOOOOOOXXXXXXXXXoooXXXXXXXXXXXXXXXXXXXX...........XX  OOOOO",
"OOOOOOOOOOOOOXXXXXXooooXXXXXXXXXXXXXXXXXXXXX.........XXX   OOOOO",
"OOOOOOOOOOOOOXXXXXXoooXXXXXXXXXXXXXXXXXXXXXX......        OOOOOO",
"OOOOOOOOOOOOOXXXXXXX XXXXXXXXXXXXXXXXXXXXXXX..  OOOOOOOOOOOOOOOO",
"OOOOOOOOOOOOOOO  XXX XXXXXXXXXXXXXXXXXXXXXX    OOOOOOOOOOOOOOOOO",
"OOOOOOOOOOOOOOOO  X  XXXXXXXXXXXXXXXXXXXXX   OOOOOOOOOOOOOOOOOOO",
"OOOOOOOOOOOOOOOOO    XXXXXXXXXXXXXXXXXXX    OOOOOOOOOOOOOOOOOOOO",
"OOOOOOOOOOOOOOOOO    XXXXXXXXXXXXXXXXX    OOOOOOOOOOOOOOOOOOOOOO",
"OOOOOOOOOOOOOOOOO    XXXXXXXXXXXXXXX     OOOOOOOOOOOOOOOOOOOOOOO",
"OOOOOOOOOOOOOOOOOO    XXXXXXXXXXXXX    OOOOOOOOOOOOOOOOOOOOOOOOO",
"OOOOOOOOOOOOOOOOOOOO     XXXXXXX     OOOOOOOOOOOOOOOOOOOOOOOOOOO",
"OOOOOOOOOOOOOOOOOOOOO        OOOOOOOOOOOOOOOOOOOOOOOOOOOOOOOOOOO",
"OOOOOOOOOOOOOOOOOOOOOOOOOOOOOOOOOOOOOOOOOOOOOOOOOOOOOOOOOOOOOOOO",
"OOOOOOOOOOOOOOOOOOOOOOOOOOOOOOOOOOOOOOOOOOOOOOOOOOOOOOOOOOOOOOOO",
"OOOOOOOOOOOOOOOOOOOOOOOOOOOOOOOOOOOOOOOOOOOOOOOOOOOOOOOOOOOOOOOO",
"OOOOOOOOOOOOOOOOOOOOOOOOOOOOOOOOOOOOOOOOOOOOOOOOOOOOOOOOOOOOOOOO",
"OOOOOOOOOOOOOOOOOOOOOOOOOOOOOOOOOOOOOOOOOOOOOOOOOOOOOOOOOOOOOOOO",
"OOOOOOOOOOOOOOOOOOOOOOOOOOOOOOOOOOOOOOOOOOOOOOOOOOOOOOOOOOOOOOOO",
"OOOOOOOOOOOOOOOOOOOOOOOOOOOOOOOOOOOOOOOOOOOOOOOOOOOOOOOOOOOOOOOO",
"OOOOOOOOOOOOOOOOOOOOOOOOOOOOOOOOOOOOOOOOOOOOOOOOOOOOOOOOOOOOOOOO",
"OOOOOOOOOOOOOOOOOOOOOOOOOOOOOOOOOOOOOOOOOOOOOOOOOOOOOOOOOOOOOOOO",
"OOOOOOOOOOOOOOOOOOOOOOOOOOOOOOOOOOOOOOOOOOOOOOOOOOOOOOOOOOOOOOOO",
"OOOOOOOOOOOOOOOOOOOOOOOOOOOOOOOOOOOOOOOOOOOOOOOOOOOOOOOOOOOOOOOO"
};
